<?xml version="1.0" encoding="iso-8859-1"?>
<!-- Uploaded to: SVG Repo, www.svgrepo.com, Generator: SVG Repo Mixer Tools -->
<!DOCTYPE svg PUBLIC "-//W3C//DTD SVG 1.1//EN" "http://www.w3.org/Graphics/SVG/1.1/DTD/svg11.dtd">
<svg fill="#000000" height="800px" width="800px" version="1.1" id="Capa_1" xmlns="http://www.w3.org/2000/svg" xmlns:xlink="http://www.w3.org/1999/xlink" 
	 viewBox="0 0 401.098 401.098" xml:space="preserve">
<g>
	<path d="M398.104,128.002L315.512,6.224C312.872,2.332,308.473,0,303.77,0H97.329c-4.704,0-9.103,2.332-11.743,6.224L2.995,128.002
		c-1.594,2.35-2.446,5.124-2.446,7.965c0,18.221,7.822,34.646,20.278,46.107V382.18c0,10.448,8.469,18.918,18.918,18.918h321.608
		c10.449,0,18.918-8.47,18.918-18.918V182.074c12.456-11.462,20.278-27.886,20.278-46.107
		C400.549,133.126,399.697,130.352,398.104,128.002z M342.436,320.209H58.663V198.457c1.508,0.109,3.026,0.184,4.562,0.184
		c17.703,0,34.156-7.483,45.774-19.899c11.618,12.416,28.071,19.899,45.775,19.899c17.701,0,34.157-7.484,45.775-19.899
		c11.617,12.416,28.071,19.899,45.774,19.899c17.703,0,34.157-7.483,45.774-19.899c11.618,12.415,28.072,19.899,45.774,19.899
		c1.536,0,3.054-0.075,4.564-0.184V320.209z"/>
	<g>
		<path d="M83.726,252.299c-1.731-1.731-4.033-2.684-6.481-2.684c-2.449,0-4.75,0.953-6.48,2.684
			c-1.731,1.732-2.685,4.033-2.685,6.481c0,2.448,0.954,4.75,2.685,6.481l43.386,43.387c1.732,1.731,4.033,2.684,6.482,2.684
			c2.448,0,4.749-0.953,6.48-2.685c1.731-1.732,2.684-4.033,2.684-6.482c0-2.448-0.953-4.75-2.685-6.48L83.726,252.299z"/>
		<path d="M140.368,271.143l-31.076-31.077c-1.731-1.731-4.033-2.685-6.481-2.685c-2.448,0-4.75,0.953-6.48,2.684
			c-1.731,1.731-2.685,4.033-2.685,6.481c0,2.448,0.954,4.75,2.685,6.481l31.077,31.077c1.731,1.731,4.033,2.685,6.481,2.685
			c2.448,0,4.75-0.953,6.48-2.685c1.731-1.731,2.685-4.033,2.685-6.481C143.053,275.175,142.1,272.874,140.368,271.143z"/>
	</g>
</g>
</svg>