<?xml version="1.0" encoding="utf-8"?>
<!-- Uploaded to: SVG Repo, www.svgrepo.com, Generator: SVG Repo Mixer Tools -->
<svg width="800px" height="800px" viewBox="0 0 1024 1024" class="icon"  version="1.1" xmlns="http://www.w3.org/2000/svg"><path d="M512 512m-512 0a512 512 0 1 0 1024 0 512 512 0 1 0-1024 0Z" fill="#FAD97F" /><path d="M715.2 723.2h43.2l-20.8-56z" fill="#F2385A" /><path d="M697.6 480L560 398.4c-12.8 6.4-28.8 11.2-48 11.2-43.2 0-76.8-22.4-76.8-52.8S468.8 304 512 304s76.8 24 76.8 52.8c0 6.4-1.6 12.8-4.8 17.6l150.4 89.6 212.8-94.4L512 163.2 76.8 369.6l433.6 193.6 187.2-83.2z" fill="#E8E8E8" /><path d="M870.256 766.4c-57.6-121.6-51.2-246.4-43.2-307.2L752 492.8v129.6l52.8 134.4h-136l52.8-134.4v-115.2L510.4 600 195.2 459.2c8 59.2 14.4 185.6-43.2 307.2 46.4 24 201.6 97.6 358.4 97.6s316.656-76.8 359.856-97.6z" fill="#E8E8E8" /><path d="M860.8 443.2l163.2-72L512 128 0 369.6l161.6 72c8 44.8 24 188.8-43.2 323.2l-6.4 14.4 12.8 8c6.4 3.2 192 108.8 385.6 108.8s379.2-104 387.2-108.8l12.8-8-6.4-14.4c-67.2-131.2-51.2-275.2-43.2-321.6zM512 163.2l435.2 206.4L734.4 464 584 374.4c3.2-4.8 4.8-11.2 4.8-17.6 0-28.8-33.6-52.8-76.8-52.8s-76.8 22.4-76.8 52.8 33.6 52.8 76.8 52.8c19.2 0 35.2-4.8 48-11.2l137.6 81.6-187.2 83.2-433.6-193.6L512 163.2z m225.6 504l20.8 56h-43.2l22.4-56z m-542.4-208L510.4 600l211.2-92.8v115.2l-52.8 134.4h136L752 622.4v-129.6l75.056-33.6c-8 60.8-14.4 185.6 43.2 307.2C827.056 787.2 667.2 864 510.4 864S198.4 790.4 152 766.4c57.6-121.6 51.2-248 43.2-307.2z" fill="" /><path d="M471.664 355.36a40.336 23.776 0 1 0 80.672 0 40.336 23.776 0 1 0-80.672 0Z" fill="#F2385A" /></svg>