<?xml version="1.0" encoding="iso-8859-1"?>
<!-- Uploaded to: SVG Repo, www.svgrepo.com, Generator: SVG Repo Mixer Tools -->
<svg fill="#000000" height="800px" width="800px" version="1.1" id="Layer_1" xmlns="http://www.w3.org/2000/svg" xmlns:xlink="http://www.w3.org/1999/xlink" 
	 viewBox="0 0 512 512" xml:space="preserve">
<g>
	<g>
		<path d="M486.013,389.253h-0.553V167.533c0-14.329-11.658-25.987-25.987-25.987H405.84v-36.492h53.633
			c14.329,0,25.987-11.658,25.987-25.987v-53.08C485.46,11.658,473.802,0,459.473,0h-159.24c-14.329,0-25.987,11.658-25.987,25.987
			v53.08c0,14.329,11.658,25.987,25.987,25.987h53.633v36.492H211.214V70.22c0-2.788-1.401-5.39-3.728-6.924
			c-2.328-1.535-5.27-1.798-7.833-0.699l-17.375,7.447l-17.375-7.447c-2.087-0.895-4.448-0.895-6.534,0l-17.376,7.446l-17.374-7.447
			c-2.086-0.895-4.448-0.895-6.534,0l-17.375,7.447l-17.375-7.447c-2.562-1.099-5.506-0.836-7.833,0.699s-3.728,4.136-3.728,6.924
			v71.327H52.527c-14.329,0-25.987,11.658-25.987,25.987v221.719h-0.553c-9.452,0-17.14,7.689-17.14,17.14v88.467
			c0,9.452,7.689,17.14,17.14,17.14h460.026c9.452,0,17.14-7.689,17.14-17.14v-88.467
			C503.153,396.942,495.465,389.253,486.013,389.253z M300.233,88.466c-5.183,0-9.4-4.216-9.4-9.4v-53.08c0-5.183,4.217-9.4,9.4-9.4
			h159.24c5.183,0,9.4,4.217,9.4,9.4v53.08c0,5.183-4.217,9.4-9.4,9.4H300.233z M389.253,105.054v36.492h-18.799v-36.492H389.253z
			 M87.362,82.798l9.081,3.893c2.087,0.895,4.448,0.895,6.534,0l17.375-7.447l17.374,7.447c2.086,0.895,4.448,0.895,6.534,0
			l17.375-7.447l17.375,7.447c2.087,0.895,4.448,0.895,6.534,0l9.081-3.893v111.828H87.362V82.798z M486.566,494.86
			c0,0.305-0.248,0.553-0.553,0.553H25.987c-0.305,0-0.553-0.248-0.553-0.553v-88.467c0-0.305,0.248-0.553,0.553-0.553h362.716
			c4.58,0,8.294-3.713,8.294-8.294c0-4.58-3.713-8.294-8.294-8.294H43.127V167.533c0-5.183,4.217-9.4,9.4-9.4h18.247v36.492H70.22
			c-4.58,0-8.294,3.713-8.294,8.294c0,4.58,3.713,8.294,8.294,8.294h141.546c4.58,0,8.294-3.713,8.294-8.294
			c0-4.58-3.713-8.294-8.294-8.294h-0.553v-36.492h248.259c5.183,0,9.4,4.217,9.4,9.4v221.719h-44.786
			c-4.58,0-8.294,3.713-8.294,8.294c0,4.58,3.713,8.294,8.294,8.294h61.927c0.305,0,0.553,0.248,0.553,0.553V494.86z"/>
	</g>
</g>
<g>
	<g>
		<path d="M256,424.639c-14.329,0-25.987,11.658-25.987,25.987c0,14.329,11.658,25.987,25.987,25.987
			c14.329,0,25.987-11.658,25.987-25.987C281.987,436.297,270.329,424.639,256,424.639z M256,460.026c-5.183,0-9.4-4.216-9.4-9.4
			s4.217-9.4,9.4-9.4s9.4,4.217,9.4,9.4S261.183,460.026,256,460.026z"/>
	</g>
</g>
<g>
	<g>
		<path d="M167.533,159.24h-53.079c-4.58,0-8.294,3.713-8.294,8.294c0,4.58,3.713,8.294,8.294,8.294h53.079
			c4.58,0,8.294-3.713,8.294-8.294C175.827,162.953,172.114,159.24,167.533,159.24z"/>
	</g>
</g>
<g>
	<g>
		<path d="M167.533,123.853h-8.841c-4.58,0-8.294,3.713-8.294,8.294c0,4.58,3.713,8.294,8.294,8.294h8.841
			c4.58,0,8.294-3.713,8.294-8.294C175.827,127.567,172.114,123.853,167.533,123.853z"/>
	</g>
</g>
<g>
	<g>
		<path d="M123.3,123.853h-8.846c-4.58,0-8.294,3.713-8.294,8.294c0,4.58,3.713,8.294,8.294,8.294h8.846
			c4.58,0,8.294-3.713,8.294-8.294C131.594,127.567,127.881,123.853,123.3,123.853z"/>
	</g>
</g>
<g>
	<g>
		<path d="M432.933,176.933h-8.844c-4.58,0-8.294,3.713-8.294,8.294c0,4.58,3.713,8.294,8.294,8.294h8.844
			c0.305,0,0.553,0.248,0.553,0.553v26.54c0,0.305-0.248,0.553-0.553,0.553H264.847c-0.305,0-0.553-0.248-0.553-0.553v-26.54
			c0-0.305,0.248-0.553,0.553-0.553h123.852c4.58,0,8.294-3.713,8.294-8.294c0-4.58-3.713-8.294-8.294-8.294H264.847
			c-9.452,0-17.14,7.689-17.14,17.14v26.54c0,9.452,7.689,17.14,17.14,17.14h168.086c9.452,0,17.14-7.689,17.14-17.14v-26.54
			C450.073,184.622,442.385,176.933,432.933,176.933z"/>
	</g>
</g>
<g>
	<g>
		<path d="M282.54,256.553h-8.847c-14.329,0-25.987,11.658-25.987,25.987c0,14.329,11.658,25.987,25.987,25.987h8.847
			c14.329,0,25.987-11.658,25.987-25.987C308.527,268.211,296.869,256.553,282.54,256.553z M282.54,291.94h-8.847
			c-5.183,0-9.4-4.216-9.4-9.4s4.217-9.4,9.4-9.4h8.847c5.183,0,9.4,4.217,9.4,9.4S287.723,291.94,282.54,291.94z"/>
	</g>
</g>
<g>
	<g>
		<path d="M353.313,256.553h-8.847c-14.329,0-25.987,11.658-25.987,25.987c0,14.329,11.658,25.987,25.987,25.987h8.847
			c14.329,0,25.987-11.658,25.987-25.987C379.3,268.211,367.643,256.553,353.313,256.553z M353.313,291.94h-8.847
			c-5.183,0-9.4-4.216-9.4-9.4s4.216-9.4,9.4-9.4h8.847c5.183,0,9.4,4.217,9.4,9.4S358.496,291.94,353.313,291.94z"/>
	</g>
</g>
<g>
	<g>
		<path d="M424.086,256.553h-8.847c-14.329,0-25.987,11.658-25.987,25.987c0,14.329,11.658,25.987,25.987,25.987h8.847
			c14.329,0,25.987-11.658,25.987-25.987C450.073,268.211,438.416,256.553,424.086,256.553z M424.086,291.94h-8.847
			c-5.183,0-9.4-4.216-9.4-9.4s4.217-9.4,9.4-9.4h8.847c5.183,0,9.4,4.217,9.4,9.4S429.269,291.94,424.086,291.94z"/>
	</g>
</g>
<g>
	<g>
		<path d="M282.54,318.479h-8.847c-14.329,0-25.987,11.658-25.987,25.987c0,14.329,11.658,25.987,25.987,25.987h8.847
			c14.329,0,25.987-11.658,25.987-25.987C308.527,330.137,296.869,318.479,282.54,318.479z M282.54,353.866h-8.847
			c-5.183,0-9.4-4.217-9.4-9.4s4.217-9.4,9.4-9.4h8.847c5.183,0,9.4,4.216,9.4,9.4S287.723,353.866,282.54,353.866z"/>
	</g>
</g>
<g>
	<g>
		<path d="M185.227,256.553h-8.847c-14.329,0-25.987,11.658-25.987,25.987c0,14.329,11.658,25.987,25.987,25.987h8.847
			c14.329,0,25.987-11.658,25.987-25.987C211.214,268.211,199.556,256.553,185.227,256.553z M185.227,291.94h-8.847
			c-5.183,0-9.4-4.216-9.4-9.4s4.217-9.4,9.4-9.4h8.847c5.183,0,9.4,4.217,9.4,9.4S190.41,291.94,185.227,291.94z"/>
	</g>
</g>
<g>
	<g>
		<path d="M185.227,318.479h-8.847c-14.329,0-25.987,11.658-25.987,25.987c0,14.329,11.658,25.987,25.987,25.987h8.847
			c14.329,0,25.987-11.658,25.987-25.987C211.214,330.137,199.556,318.479,185.227,318.479z M185.227,353.866h-8.847
			c-5.183,0-9.4-4.217-9.4-9.4s4.217-9.4,9.4-9.4h8.847c5.183,0,9.4,4.216,9.4,9.4S190.41,353.866,185.227,353.866z"/>
	</g>
</g>
<g>
	<g>
		<path d="M114.454,256.553h-8.847c-14.329,0-25.987,11.658-25.987,25.987c0,14.329,11.658,25.987,25.987,25.987h8.847
			c14.329,0,25.987-11.658,25.987-25.987C140.441,268.211,128.783,256.553,114.454,256.553z M114.454,291.94h-8.847
			c-5.183,0-9.4-4.216-9.4-9.4s4.217-9.4,9.4-9.4h8.847c5.183,0,9.4,4.217,9.4,9.4S119.637,291.94,114.454,291.94z"/>
	</g>
</g>
<g>
	<g>
		<path d="M114.454,318.479h-8.847c-14.329,0-25.987,11.658-25.987,25.987c0,14.329,11.658,25.987,25.987,25.987h8.847
			c14.329,0,25.987-11.658,25.987-25.987C140.441,330.137,128.783,318.479,114.454,318.479z M114.454,353.866h-8.847
			c-5.183,0-9.4-4.217-9.4-9.4s4.217-9.4,9.4-9.4h8.847c5.183,0,9.4,4.216,9.4,9.4S119.637,353.866,114.454,353.866z"/>
	</g>
</g>
<g>
	<g>
		<path d="M353.313,318.479h-8.847c-14.329,0-25.987,11.658-25.987,25.987c0,14.329,11.658,25.987,25.987,25.987h8.847
			c14.329,0,25.987-11.658,25.987-25.987C379.3,330.137,367.643,318.479,353.313,318.479z M353.313,353.866h-8.847
			c-5.183,0-9.4-4.217-9.4-9.4s4.216-9.4,9.4-9.4h8.847c5.183,0,9.4,4.216,9.4,9.4S358.496,353.866,353.313,353.866z"/>
	</g>
</g>
<g>
	<g>
		<path d="M424.086,318.479h-8.847c-14.329,0-25.987,11.658-25.987,25.987c0,14.329,11.658,25.987,25.987,25.987h8.847
			c14.329,0,25.987-11.658,25.987-25.987C450.073,330.137,438.416,318.479,424.086,318.479z M424.086,353.866h-8.847
			c-5.183,0-9.4-4.217-9.4-9.4s4.217-9.4,9.4-9.4h8.847c5.183,0,9.4,4.216,9.4,9.4S429.269,353.866,424.086,353.866z"/>
	</g>
</g>
<g>
	<g>
		<path d="M335.62,44.233h-17.693c-4.58,0-8.294,3.713-8.294,8.294c0,4.58,3.713,8.294,8.294,8.294h17.693
			c4.58,0,8.294-3.713,8.294-8.294C343.914,47.947,340.2,44.233,335.62,44.233z"/>
	</g>
</g>
<g>
	<g>
		<path d="M441.78,44.233h-17.693c-4.58,0-8.294,3.713-8.294,8.294c0,4.58,3.713,8.294,8.294,8.294h17.693
			c4.58,0,8.294-3.713,8.294-8.294C450.073,47.947,446.36,44.233,441.78,44.233z"/>
	</g>
</g>
<g>
	<g>
		<path d="M388.7,44.233h-17.693c-4.58,0-8.294,3.713-8.294,8.294c0,4.58,3.713,8.294,8.294,8.294H388.7
			c4.58,0,8.294-3.713,8.294-8.294C396.994,47.947,393.28,44.233,388.7,44.233z"/>
	</g>
</g>
</svg>