<svg xmlns="http://www.w3.org/2000/svg" width="256" height="256" viewBox="0 0 100 100"><rect width="100" height="100" rx="20" fill="#7d6ee7"></rect><path fill="#fff" d="M21.09 55.09L21.09 70.37Q20.69 70.50 20.02 70.67Q19.35 70.84 18.54 70.84L18.54 70.84Q15.60 70.84 15.60 68.36L15.60 68.36L15.60 32.71Q15.60 31.64 16.13 31.07Q16.67 30.50 17.81 30.17L17.81 30.17Q19.75 29.57 22.60 29.30Q25.44 29.03 28.12 29.03L28.12 29.03Q36.57 29.03 40.69 32.41Q44.81 35.80 44.81 42.03L44.81 42.03Q44.81 46.65 42.43 49.80Q40.05 52.95 35.23 54.29L35.23 54.29Q36.90 56.43 38.58 58.58Q40.25 60.72 41.76 62.63Q43.27 64.54 44.44 66.08Q45.61 67.62 46.28 68.49L46.28 68.49Q46.01 69.63 45.11 70.30Q44.20 70.97 43.27 70.97L43.27 70.97Q42.13 70.97 41.39 70.44Q40.65 69.90 39.85 68.76L39.85 68.76L30.07 55.09L21.09 55.09ZM21.02 50.54L28.73 50.54Q33.69 50.54 36.50 48.39Q39.31 46.25 39.31 42.03L39.31 42.03Q39.31 37.81 36.37 35.70Q33.42 33.59 27.92 33.59L27.92 33.59Q26.11 33.59 24.27 33.75Q22.43 33.92 21.02 34.19L21.02 34.19L21.02 50.54ZM77.64 68.76L60.55 51.07L60.55 70.44Q60.15 70.57 59.48 70.74Q58.81 70.90 58.01 70.90L58.01 70.90Q55.06 70.90 55.06 68.43L55.06 68.43L55.06 29.90Q55.39 29.77 56.10 29.60Q56.80 29.43 57.60 29.43L57.60 29.43Q60.55 29.43 60.55 31.91L60.55 31.91L60.55 48.59L78.98 29.50Q80.72 29.57 81.59 30.37Q82.46 31.17 82.46 32.25L82.46 32.25Q82.46 33.12 81.99 33.85Q81.52 34.59 80.65 35.46L80.65 35.46L66.18 49.67Q72.28 55.63 76.73 60.28Q81.19 64.94 84.40 67.82L84.40 67.82Q84.27 69.30 83.50 70.13Q82.73 70.97 81.52 70.97L81.52 70.97Q80.38 70.97 79.48 70.33Q78.58 69.70 77.64 68.76L77.64 68.76Z"></path></svg>