<?xml version="1.0" encoding="utf-8"?>
<!-- Uploaded to: SVG Repo, www.svgrepo.com, Generator: SVG Repo Mixer Tools -->
<svg width="800px" height="800px" viewBox="-15.35 0 416.549 416.549" xmlns="http://www.w3.org/2000/svg"><defs><style>.a{fill:#f9d9d9;}.b{fill:#f4b3b3;}.c{fill:#211715;}.d{fill:#3f88c9;}.e{fill:#ffffff;}.f{fill:#7a7473;}.g{fill:#b3b3b3;}.h{fill:#8c7c72;}.i{fill:#201614;}.j{fill:#f2635f;}.k{fill:#bd957a;}</style></defs><path class="a" d="M364.4,81.477a17.011,17.011,0,0,0-1.268,5.257,16.521,16.521,0,0,0,1.636,7.2,17.829,17.829,0,0,0,6.259,6.53c1.866,1.066,6.551,2.91,9.685,2.308,3.336-3.594,3.482-9.314,2.7-14.142-.7-4.375-5.226-9.184-9.045-11.432-1.363,2.432-2.335,4.588-3.625,6.81C369.6,83.531,366.688,82.4,364.4,81.477Z"/><path class="a" d="M23.3,43.859a24.032,24.032,0,0,1,4.547-2.4,15.68,15.68,0,0,1,7.018-.175,14.858,14.858,0,0,1,6.368,3.3c1.577,1.3,3.813,4.26,3.99,7.288-2.532,3.913-6.908,7.357-11.537,7.767-4.2.372-9.034-2.606-12-5.6,1.922-1.823,3.682-3.222,5.428-4.929C26.407,48.174,24.681,45.758,23.3,43.859Z"/><path class="b" d="M2.625,112.53a19.273,19.273,0,0,1-.47-6.978,12.552,12.552,0,0,1,2.56-6.814c4.668-6.36,11.625-7.86,19.118-7.966a3,3,0,0,1,1.1.124c2.256.845,3.34,6.643,3.651,8.682a20.633,20.633,0,0,1-.866,10.067c-1.946,5.365-7.055,9.751-12.428,11.675-1.137-3.4-1.442-6.911-1.973-10.461C10.677,111.188,6.013,112.384,2.625,112.53Z"/><path class="b" d="M353.813,38.106a27.538,27.538,0,0,1-.011,5.875,17.965,17.965,0,0,1-3.576,7.186,17,17,0,0,1-6.739,4.671c-2.155.9-6.344,1.575-9.5.134-2.6-4.65-3.741-10.914-1.681-15.811,1.868-4.439,7.465-7.736,12.074-9.129.815,2.917,1.287,5.444,2.079,8.121C347.79,38.938,351.155,38.486,353.813,38.106Z"/><path class="b" d="M68.916,22.3a36.674,36.674,0,0,1,1.716-7.651c1.21-3.089,4.55-6.6,6.739-8.327A22.691,22.691,0,0,1,87.5,2.183c3.067-.548,8.721-.215,12.413,2.575,2.042,6.811,1.714,15.3-2.388,21.085-3.717,5.243-11.963,7.918-18.372,8.4-.216-4.037-.1-7.465-.358-11.182C77,22.955,72.488,22.57,68.916,22.3Z"/><path class="c" d="M24.309,45.586a14.384,14.384,0,0,1,5.348-2.507,13.363,13.363,0,0,1,5.646.382c3.61,1.08,7.576,4.43,7.92,8.415l.273-1.01c-2.155,3.259-5.7,6.319-9.721,6.769-3.99.447-7.987-2.34-10.672-5.006v2.828c1.781-1.674,3.671-3.229,5.428-4.929a2.013,2.013,0,0,0,.313-2.423c-1.3-1.732-2.545-3.5-3.817-5.256a2.059,2.059,0,0,0-2.737-.717,2.016,2.016,0,0,0-.717,2.736c1.272,1.751,2.518,3.524,3.817,5.255L25.7,47.7c-1.757,1.7-3.646,3.254-5.427,4.929a2.024,2.024,0,0,0,0,2.828c2.891,2.872,6.7,5.418,10.8,6.046,4.284.655,8.363-1.127,11.626-3.811a17.416,17.416,0,0,0,4.25-4.807c.984-1.827-.59-4.909-1.568-6.469a16.037,16.037,0,0,0-10.117-7.081,18.853,18.853,0,0,0-6.67-.113,17.779,17.779,0,0,0-6.3,2.91C20.13,43.517,22.134,46.981,24.309,45.586Z"/><path class="c" d="M4.554,112A14.224,14.224,0,0,1,7.237,98.781a18.239,18.239,0,0,1,11.185-5.617c1.04-.164,2.093-.252,3.143-.313.5-.029,1-.049,1.508-.063.237-.007.52.015.76-.016.575-.075.163-.127.438.024-.151-.082.237.268.278.324a5.825,5.825,0,0,1,.578,1.043,15.309,15.309,0,0,1,.813,2.454c1.106,4.193,1.39,8.753-.281,12.845-1.9,4.642-6.272,8.224-10.9,9.929l2.461,1.4a63.816,63.816,0,0,1-1.974-10.461,1.986,1.986,0,0,0-1.928-1.468c-3.575.473-7.083,1.48-10.693,1.671-2.561.136-2.577,4.137,0,4,3.626-.192,7.11-1.2,10.693-1.671l-1.929-1.469a63.9,63.9,0,0,0,1.973,10.461,2.021,2.021,0,0,0,2.461,1.4c5.331-1.964,10.282-5.732,12.88-10.881,2.53-5.015,2.544-10.736,1.272-16.1-.494-2.085-1.166-4.428-2.644-6.046-1.8-1.97-4.666-1.485-7.069-1.271-5.38.477-10.641,2.042-14.671,5.793a17.02,17.02,0,0,0-4.867,7.537A20.826,20.826,0,0,0,.7,113.062C1.359,115.547,5.219,114.493,4.554,112Z"/><path class="c" d="M351.813,38.106c.2,2.345.411,4.844-.408,7.094a15.273,15.273,0,0,1-3.717,5.755c-3.089,2.905-8.526,5.069-12.69,3.291l.718.717A18.083,18.083,0,0,1,334.674,40.4c1.583-4.01,6.394-6.252,10.24-7.441l-2.46-1.4c.741,2.7,1.3,5.437,2.079,8.121a2.059,2.059,0,0,0,2.46,1.4c2.444-.387,4.9-.7,7.351-1.047a2.012,2.012,0,0,0,1.4-2.46,2.052,2.052,0,0,0-2.46-1.4c-2.45.349-4.907.66-7.352,1.047l2.461,1.4c-.78-2.684-1.338-5.426-2.079-8.121a2.025,2.025,0,0,0-2.46-1.4c-4.1,1.266-8.333,3.355-11.056,6.77-2.929,3.673-3.5,8.862-2.937,13.4a21.745,21.745,0,0,0,2.047,7.032c1.153,2.32,4.487,2.569,6.825,2.493a18.113,18.113,0,0,0,12.644-5.9,20.893,20.893,0,0,0,3.888-6.632c.926-2.587.777-5.464.551-8.158C355.6,35.559,351.6,35.536,351.813,38.106Z"/><path class="c" d="M70.845,22.828c.449-3.338.966-6.844,2.874-9.693a20.884,20.884,0,0,1,6.951-6.6c5.4-2.988,13-3.861,18.236-.046l-.919-1.2C99.831,11.6,99.84,19.5,95.7,24.966c-3.653,4.829-10.793,6.813-16.549,7.276l2,2c-.189-3.725-.114-7.459-.358-11.182a2.055,2.055,0,0,0-2-2c-3.3-.2-6.587-.51-9.881-.764-2.567-.2-2.554,3.8,0,4,3.294.254,6.584.564,9.881.764l-2-2c.244,3.723.169,7.457.358,11.182a2.022,2.022,0,0,0,2,2c5.8-.467,11.86-2.143,16.535-5.733,5.009-3.845,7.176-10.036,7.426-16.19a31.284,31.284,0,0,0-1.066-9.37c-.436-1.61-1.547-2.349-3-3.062A17.86,17.86,0,0,0,94.363.351,23.548,23.548,0,0,0,76.7,4.333a26.455,26.455,0,0,0-6.837,7.416c-1.816,3-2.412,6.6-2.872,10.016a2.069,2.069,0,0,0,1.4,2.46A2.013,2.013,0,0,0,70.845,22.828Z"/><path class="c" d="M362.668,80.468a16.94,16.94,0,0,0-1.559,7.116,18.652,18.652,0,0,0,1.687,6.83,17.808,17.808,0,0,0,9.339,8.786,21.131,21.131,0,0,0,6.262,1.647,6.067,6.067,0,0,0,3.319-.344,7.52,7.52,0,0,0,2.271-2.944c2.141-4.129,2.216-9.306,1.293-13.785-1.061-5.143-5.553-9.677-9.9-12.3a2.024,2.024,0,0,0-2.736.717c-1.248,2.25-2.345,4.579-3.625,6.81l2.259-.919c-2.1-.877-4.231-1.689-6.347-2.534a2.014,2.014,0,0,0-2.46,1.4,2.048,2.048,0,0,0,1.4,2.46c2.115.845,4.245,1.657,6.347,2.534a2,2,0,0,0,2.258-.919c1.28-2.231,2.377-4.561,3.625-6.81l-2.737.718c3.559,2.144,7.3,5.838,8.1,10.073.751,4,.7,9.153-2.16,12.36l.883-.515c-2.132.352-4.6-.511-6.539-1.322a14.683,14.683,0,0,1-5.2-3.81,12.5,12.5,0,0,1-2.316-13.228,2.063,2.063,0,0,0-.718-2.736A2.014,2.014,0,0,0,362.668,80.468Z"/><path class="d" d="M269.549,144.358c-1.62.011-13.863-.623-21.487,1.405a8.82,8.82,0,0,0-5.479,3.386c-.927,1.413-1.54,3.5-1.45,6.977.152,5.867.449,47.874,2.1,64.846.3,3.036.677,6.289,2.545,8.581,2.57,3.154,6.938,3.358,10.79,3.325,20.332-.176,41.694-.325,62.027-.5,5.644-.049,10.218-4.981,10.228-11.126.028-16.424-1.634-56.388-2.083-66.39a13.356,13.356,0,0,0-2.579-7.793,10.527,10.527,0,0,0-5.086-2.918c-7.456-2.05-20.956-1.225-22.417-1.086"/><path class="c" d="M246.843,230.619a7.486,7.486,0,0,1-1.06-1.061c-1.87-2.3-2.25-5.55-2.55-8.59q-.027-.283-.054-.576a25.908,25.908,0,0,0,3.394-2.915c.047.774.079,1.287.079,1.287.074,1.185.222,3.259.393,5.782a4.648,4.648,0,0,0,1.879-.417c-.15,2.5-.329,4.992-.516,7.486A8,8,0,0,1,246.843,230.619Z"/><path class="e" d="M312.954,109.933a4.3,4.3,0,0,1,3.445-1.008,4.066,4.066,0,0,1,2.923,1.943,5.734,5.734,0,0,1,.6,2.312,17.228,17.228,0,0,1-1.756,9.13,10.948,10.948,0,0,1-2.831,3.715,3.3,3.3,0,0,1-3.309.774l-.5-.151c-.3,1.2-.707,2.247-.887,2.758-.986,2.5-6.537,11.4-13.5,14.566.07.548.16,1.177.309,2,.36,2.12.96,4.52,3.78,6.08.19.06,3.87,1.81,4.16,1.93,0,0-9,13.7-19.669,13.7s-21.231-13.7-21.231-13.7c.3-.12,3.97-1.87,4.17-1.93,2.81-1.56,3.41-3.96,3.78-6.08.089-.506.159-.933.206-1.3a27.259,27.259,0,0,1-9.8-7.235,31.037,31.037,0,0,1-6.141-10.429l-.73.2a4.116,4.116,0,0,1-3.731-1.179,10.945,10.945,0,0,1-2.83-3.715,17.219,17.219,0,0,1-1.757-9.13,5.752,5.752,0,0,1,.6-2.312,4.066,4.066,0,0,1,2.923-1.943,4.3,4.3,0,0,1,3.445,1.008s2.168-23.687,28.39-23.687S312.954,109.933,312.954,109.933Z"/><path class="f" d="M251.358,97.826a31.051,31.051,0,0,1,13.276-22.641,32.584,32.584,0,0,1,19.33-5.949,34.247,34.247,0,0,1,11.409,1.872,32.456,32.456,0,0,1,4.813,2.158A37.644,37.644,0,0,1,305.7,76.92c.66.573,1.629,1.515,2.266,2.16a30.167,30.167,0,0,1,4.189,5.3A31.614,31.614,0,0,1,316.7,99.689a42.341,42.341,0,0,1-.595,9.208,4.291,4.291,0,0,0-2.55.6l-1.239.727a4.018,4.018,0,0,1-2.674.536,2.065,2.065,0,0,1-1.195-1.03,6.942,6.942,0,0,1-.573-1.729A26.764,26.764,0,0,0,302.24,95.34a7.187,7.187,0,0,0-2.323-3.5,4,4,0,0,0-3.251-.749,52.424,52.424,0,0,1-6.034,2.488c-1.516.52-3.521.906-4.629-.059-1.049-.914-.622-2.571-1.871-3.314a4.232,4.232,0,0,0-3.052-.07C270.4,92.81,263.97,99.3,260.007,107.533c0,0-1.065,2.181-2.466,2.5a10.409,10.409,0,0,1-2.909-.1,4.209,4.209,0,0,0-2.616-1.041c.2,1.917-.97-5.079-.789-9.2Q251.267,98.739,251.358,97.826Z"/><path class="c" d="M299.1,144.918a91.256,91.256,0,0,1,15.294.361c2.549.316,5.351.781,7.458,2.357,1.713,1.281,2.482,3.649,2.767,5.69.387,2.761.3,5.658.419,8.441q.255,6.081.489,12.162c.378,9.794.726,19.588.991,29.386.117,4.372.22,8.744.273,13.118.05,4.111.466,8.441-2.719,11.6a8.257,8.257,0,0,1-5.955,2.35c-3.655.046-7.312.063-10.967.093q-10.877.088-21.751.17-10.849.082-21.7.172c-3.2.026-6.43.179-9.629.023-2.421-.118-5.2-.571-6.8-2.6-1.655-2.095-1.841-5.133-2.081-7.682-.166-1.764-.3-3.531-.412-5.3-.279-4.274-.471-8.554-.634-12.834-.358-9.4-.565-18.812-.729-28.22-.1-5.952-.159-11.9-.28-17.857-.041-2-.04-4.235,1.046-6,1.354-2.2,4.311-2.721,6.652-3.159a76.187,76.187,0,0,1,14.932-.91c1.261.015,2.523.074,3.784.073,2.574,0,2.578-4,0-4-4.064,0-8.108-.148-12.172.1a57.179,57.179,0,0,0-8.431,1.046c-2.814.6-5.695,1.58-7.55,3.9-2.507,3.14-2.284,7.238-2.223,11.033.049,3.105.089,6.209.137,9.314.146,9.56.327,19.12.627,28.677.277,8.821.386,17.775,1.514,26.539.41,3.185,1.192,6.533,3.658,8.792,2.268,2.078,5.249,2.808,8.241,3.036,3.271.249,6.595.052,9.872.025q5.764-.049,11.529-.094,11.379-.09,22.758-.176,5.778-.045,11.558-.092c3.556-.029,7.3.258,10.83-.181a12.719,12.719,0,0,0,10.72-10.728,39.5,39.5,0,0,0,.182-6.371q-.035-3.215-.1-6.428c-.208-10.123-.553-20.243-.925-30.361q-.447-12.142-.975-24.283c-.2-4.571-1.087-9.39-5.187-12.1-2.525-1.671-5.548-2.241-8.5-2.631a74.728,74.728,0,0,0-8.921-.578c-2.364-.029-4.73.017-7.092.124-2.563.116-2.578,4.116,0,4Z"/><path class="g" d="M318.83,159.03a53.836,53.836,0,0,0-11.124-4.789,38.69,38.69,0,0,0-6.61-4.87c-1.626,9.317-12.539,40.4-14.621,45.566-3.292-8.619-14.645-37.327-16.544-45.5a55.971,55.971,0,0,0-7.81,5.593c-6.936,2.979-13.095,6.685-17.639,11.418a78.17,78.17,0,0,0-8.467,12.231c-5.518,9.891-9.375,19.063-10.154,30.363a15.617,15.617,0,0,0,.878,7.284c1.9,4.406,7.156,6.827,11.905,6.136,3.125-.454,7.319-3.739,10.92-8.423-.289,4.511-.578,9.047-.578,9.047-.271,4.779-.662,9.552-1.014,14.325q-.323,4.4-.618,8.8-.145,2.217-.275,4.434c-.065,1.106-.5,2.854-.108,3.916a1.084,1.084,0,0,0,.175.215,1.861,1.861,0,0,0,1.209.39c1.444.08,22.316.229,26.519-.622a6.255,6.255,0,0,0,5.265-4.121,45.173,45.173,0,0,0,4.585-13.382,44.884,44.884,0,0,0,4.577,13.382,6.252,6.252,0,0,0,5.265,4.121c4.2.851,25.21.7,26.654.622a1.863,1.863,0,0,0,1.22-.4c1.053,1,.377-2.558.354-3.3q-.105-3.26-.213-6.519c-.131-4-.264-7.991-.377-11.988-.118-4.165-.214-8.33-.255-12.5l-.022-10.756c3.113,3.093,6.794,5.372,9.616,5.757,4.75.649,10-1.625,11.906-5.764a25.955,25.955,0,0,0,1.566-9.349c-.78-10.615-5.564-18.969-11.667-27.888-2.721-3.977-8.465-8.973-12.4-12.109q-1.034-.689-2.114-1.32"/><path class="e" d="M313.721,382.283c-.075-.487-.117-.969-.149-1.3-.173-1.767-.346-3.519-.474-5.243-4.656.074-11.923.077-17.288.045.128,2.058.17,4.055.369,6.51,2.884,1.771,5.849,3.519,9.156,4.2a10.607,10.607,0,0,0,9.307-2.183,3.573,3.573,0,0,1-.435-.46A4.018,4.018,0,0,1,313.721,382.283Z"/><path class="e" d="M275.273,375.792c-5.312.026-12.077.019-16.427-.053-.131,1.725-.3,3.478-.477,5.246a7.444,7.444,0,0,1-.635,2.865,3.206,3.206,0,0,1-.381.409,10.585,10.585,0,0,0,9.364,2.234c3.262-.667,6.193-2.378,9.039-4.124.205-2.487.247-4.5.378-6.581Z"/><path class="c" d="M293.42,371.842l.066.452c-.021-.161-.015-.118.016.13q.054.426.1.853.087.816.148,1.635c.077,1.02.126,2.042.174,3.065.113,2.4.26,4.8.544,7.188a2.062,2.062,0,0,0,2,2,2.012,2.012,0,0,0,2-2c-.569-4.785-.483-9.615-1.191-14.386a2.014,2.014,0,0,0-2.46-1.4,2.05,2.05,0,0,0-1.4,2.46Z"/><path class="c" d="M310.886,369.6a94.14,94.14,0,0,0,.742,11.957c.17,1.559.4,3.058,1.605,4.174a40.064,40.064,0,0,0,3.339,2.6,2.012,2.012,0,0,0,2.736-.718,2.047,2.047,0,0,0-.717-2.736,30.231,30.231,0,0,1-2.465-1.919c-.034-.03-.433-.434-.434-.433.048-.03.2.3.2.3a3.594,3.594,0,0,1-.145-.536,12.135,12.135,0,0,1-.21-1.635,95.215,95.215,0,0,1-.653-11.053c.049-2.575-3.951-2.575-4,0Z"/><path class="c" d="M274.664,370.779c-.708,4.771-.622,9.6-1.191,14.386a2.01,2.01,0,0,0,2,2,2.049,2.049,0,0,0,2-2c.284-2.389.431-4.785.544-7.188.048-1.023.1-2.045.174-3.065q.062-.819.148-1.635.046-.427.1-.853c.031-.248.037-.291.016-.13l.066-.452a2.065,2.065,0,0,0-1.4-2.46,2.016,2.016,0,0,0-2.461,1.4Z"/><path class="c" d="M257.056,369.6a95.437,95.437,0,0,1-.654,11.053,13.825,13.825,0,0,1-.185,1.522,2.164,2.164,0,0,0-.138.547c.019.121.062.045.094-.107s.055-.045-.062.064c-.078.073-.153.151-.231.224a27.745,27.745,0,0,1-2.53,1.978,2.062,2.062,0,0,0-.717,2.736,2.014,2.014,0,0,0,2.736.718c1.1-.826,2.255-1.615,3.275-2.544,1.245-1.135,1.5-2.631,1.669-4.234a94.326,94.326,0,0,0,.743-11.957c-.05-2.571-4.05-2.58-4,0Z"/><path class="h" d="M309.165,408.966a18.023,18.023,0,0,0,3.338,2.605,21.9,21.9,0,0,0,13.632,2.8,12.916,12.916,0,0,0,5.793-2.04,7.2,7.2,0,0,0,3.16-5.107c.248-2.928-1.53-5.7-3.613-7.776-5.346-5.321-11.012-10.543-15.734-16.366-2.367,3.258-6.606,4.191-10.406,3.413-3.493-.715-6.606-2.626-9.644-4.494-2.907-1.787-3.345,6.6-3.413,8.423-.109,2.88-.582,6.684,1.7,8.814a23.031,23.031,0,0,0,7.308,3.975C304.8,404.283,306.605,406.542,309.165,408.966Z"/><path class="h" d="M262.887,408.966a17.99,17.99,0,0,1-3.338,2.605,21.9,21.9,0,0,1-13.632,2.8,12.908,12.908,0,0,1-5.792-2.04,7.2,7.2,0,0,1-3.161-5.107c-.247-2.928,1.53-5.7,3.614-7.776,5.345-5.321,11.011-10.543,15.733-16.366,2.367,3.258,6.607,4.191,10.406,3.413,3.494-.715,6.607-2.626,9.644-4.494,2.907-1.787,3.345,6.6,3.414,8.423.108,2.88.581,6.684-1.7,8.814a23.031,23.031,0,0,1-7.308,3.975C267.257,404.283,265.447,406.542,262.887,408.966Z"/><path class="c" d="M307.751,410.381a22.373,22.373,0,0,0,11.654,5.787c4.224.709,9.045.535,12.837-1.668a9.081,9.081,0,0,0,4.324-10.917c-1.5-4.176-5.237-7.092-8.308-10.1a146.639,146.639,0,0,1-11.1-11.813c-.9-1.107-2.445-.511-3.141.4-2.923,3.846-8.507,2.89-12.263,1.079-1.209-.584-2.374-1.254-3.524-1.945a8.021,8.021,0,0,0-2.877-1.406,3.508,3.508,0,0,0-3.548,2.177c-1.27,2.537-1.4,5.66-1.524,8.447a22.009,22.009,0,0,0,.293,6.754,8.736,8.736,0,0,0,4.085,5.06,43.292,43.292,0,0,0,7.006,3.224c2.444,1.037,4.211,3.127,6.089,4.921,1.862,1.777,4.7-1.047,2.828-2.829a40.593,40.593,0,0,0-5.148-4.571c-1.836-1.236-3.984-1.692-5.955-2.639-1.557-.749-3.821-1.711-4.693-3.309-.924-1.695-.631-3.94-.543-5.789.119-2.484.045-5.074,1.059-7.362-.115.26.2-.27.223-.366a.186.186,0,0,1-.195.14,6.076,6.076,0,0,0-.63.065c-.2.048-.181-.308-.016,0,.233.44,1.454.89,1.911,1.162a29.844,29.844,0,0,0,7.132,3.272c5.072,1.408,10.481.221,13.744-4.071l-3.141.405c2.537,3.11,5.293,6.026,8.125,8.866,2.785,2.793,5.848,5.412,8.439,8.386,2.108,2.418,3.227,5.776.666,8.3-2.482,2.443-6.647,2.7-9.918,2.415a18.537,18.537,0,0,1-11.06-4.9C308.7,405.794,305.867,408.616,307.751,410.381Z"/><path class="c" d="M261.473,407.552a18.628,18.628,0,0,1-9.678,4.724c-3.324.589-7.4.437-10.318-1.444a5.4,5.4,0,0,1-2.491-3.5,6.5,6.5,0,0,1,1.364-4.538,27.677,27.677,0,0,1,3.783-4.053c1.438-1.411,2.882-2.817,4.313-4.236a129.6,129.6,0,0,0,9.279-10.016l-3.141-.405c2.873,3.779,7.356,5.158,11.97,4.455a22.337,22.337,0,0,0,7.155-2.657c1.116-.605,2.2-1.268,3.282-1.927.68-.414.547-.247-.017-.23-.058,0-.543-.169-.306-.092a.331.331,0,0,1-.08-.051c.056.2.271.529.442,1.121a16.758,16.758,0,0,1,.445,2.126c.143.944.24,2.253.29,3.359a21.283,21.283,0,0,1-.06,5.588c-.443,1.951-1.953,2.843-3.6,3.768-2.148,1.2-4.569,1.737-6.7,2.946a31.966,31.966,0,0,0-5.932,5.057c-1.866,1.781.966,4.607,2.828,2.829,1.673-1.6,3.233-3.4,5.285-4.524a24.443,24.443,0,0,1,2.882-1.133,30.311,30.311,0,0,0,3.485-1.628c1.9-1.048,3.928-2.331,4.922-4.34a13.562,13.562,0,0,0,.978-6.656c-.123-2.935-.146-6.075-1.1-8.882-.482-1.422-1.284-2.944-2.851-3.366-2.075-.558-4.156,1.439-5.822,2.365-4.064,2.262-10.587,4.4-14.044-.147-.7-.915-2.238-1.511-3.141-.4a132.53,132.53,0,0,1-9.61,10.344c-1.707,1.687-3.43,3.358-5.139,5.045A19.865,19.865,0,0,0,236.17,402a9.041,9.041,0,0,0,2.228,11.509c3.338,2.682,8.074,3.33,12.229,2.925a22.981,22.981,0,0,0,13.674-6.057C266.184,408.617,263.351,405.793,261.473,407.552Z"/><path class="e" d="M285.386,240.208a45.191,45.191,0,0,0,3.915,10.213,6.252,6.252,0,0,0,5.265,4.121c4.085.827,24.046.709,26.488.629-.422,18.512-1.731,48.963-2.321,68.017-.6,19.418-.739,32.988-1.34,52.406-2.692.286-23.1.235-27.661.124-.348-11.954-1.675-40.918-1.837-45.65-.459-13.4-.965-31.8-1.422-45.109-.577,13.96-1.166,29.232-1.743,43.215-.2,4.938-1.9,35.069-2.337,47.544-4.556.111-24.969.162-27.661-.124-.665-19.392-1.408-33.095-2.073-52.488-.647-18.86-2.046-49.4-3.235-67.917,4.579.075,21.689.115,25.45-.647a6.255,6.255,0,0,0,5.265-4.121,45.238,45.238,0,0,0,3.915-10.213Z"/><path class="e" d="M285.2,157.875l-.628,0c-.052-.179-.242-.271-.415-.346-1.315-.6-9.58-5.194-10.874-6.065l-3.421-2.3.124.511c2.051,8.463,13.228,36.73,16.49,45.27,2.082-5.164,13-36.249,14.621-45.566l.04-.228-2.632,1.871c-1.475,1.049-9.883,5.839-11.4,6.528-.167.08-.352.173-.41.346Z"/><path class="d" d="M288.51,189.466c.827-2.3,1.814-5.1,2.867-8.15l-.466-2.006c-.842-5.626-1.79-12.885-1.778-13.185a21.265,21.265,0,0,1,.7-2.991l.6-1.479-2.078-1.879H286.9c-.841,0-1.715,0-2.509.006h-1.259c-.5.531-1.11,1.161-1.739,1.8l.421,1.008c.144.732.69,3.125.69,3.494,0,.213-.416,5.466-1.148,11.445,0,0-.25,1.17-.569,2.658,2.385,6.219,4.533,11.72,5.689,14.745C286.873,193.949,287.594,192.015,288.51,189.466Z"/><path class="c" d="M287.808,203.155a6.634,6.634,0,0,0-1.3-.471,4.282,4.282,0,0,0-1.93.06,4.782,4.782,0,0,0-2.38,1.459,4.975,4.975,0,0,0-1.214,2.987,4.056,4.056,0,0,0,.708,2.52,5.887,5.887,0,0,0,1.961,1.89,5.688,5.688,0,0,0,2.606.647,4,4,0,0,0,2.918-.96,4.8,4.8,0,0,0,1.385-2.337,5.326,5.326,0,0,0-2.753-5.795,2.167,2.167,0,0,0-1.541-.2,2.044,2.044,0,0,0-1.195.919,2.022,2.022,0,0,0-.2,1.541,1.948,1.948,0,0,0,.919,1.2,3.111,3.111,0,0,1,.628.374l-.4-.312a3.357,3.357,0,0,1,.5.5l-.313-.405a4.848,4.848,0,0,1,.59,1.03l-.2-.478a3.031,3.031,0,0,1,.192.705l-.072-.531a2.784,2.784,0,0,1-.012.632l.071-.532a3.147,3.147,0,0,1-.2.713l.2-.478a3.426,3.426,0,0,1-.405.692l.312-.4a2.568,2.568,0,0,1-.382.391l.4-.313a1.789,1.789,0,0,1-.31.19l.478-.2a1.823,1.823,0,0,1-.443.112l.532-.071a5.143,5.143,0,0,1-1.252-.025l.532.072a3.344,3.344,0,0,1-.751-.187l.478.2a3.263,3.263,0,0,1-.686-.4l.4.312a4.241,4.241,0,0,1-.715-.727l.313.405a3.65,3.65,0,0,1-.421-.706l.2.478a1.939,1.939,0,0,1-.133-.466l.072.531a3.066,3.066,0,0,1,.007-.7l-.072.532a2.906,2.906,0,0,1,.19-.721l-.2.478a3.011,3.011,0,0,1,.321-.548l-.313.405a3.22,3.22,0,0,1,.572-.571l-.405.312a3.334,3.334,0,0,1,.637-.367l-.478.2a3.083,3.083,0,0,1,.713-.193l-.532.072a2.164,2.164,0,0,1,.469-.01l-.531-.072a3.773,3.773,0,0,1,.836.255l-.478-.2.061.026a2.2,2.2,0,0,0,1.542.2,2.039,2.039,0,0,0,1.195-.919,2.017,2.017,0,0,0,.2-1.541A1.919,1.919,0,0,0,287.808,203.155Z"/><path class="c" d="M287.808,219.488a6.7,6.7,0,0,0-1.3-.471,4.268,4.268,0,0,0-1.93.061,4.78,4.78,0,0,0-2.38,1.458,4.975,4.975,0,0,0-1.214,2.987,4.054,4.054,0,0,0,.708,2.52,5.9,5.9,0,0,0,1.961,1.891,5.7,5.7,0,0,0,2.606.646,4,4,0,0,0,2.918-.96,4.787,4.787,0,0,0,1.385-2.336,5.328,5.328,0,0,0-2.753-5.8,2.166,2.166,0,0,0-1.541-.2,2,2,0,0,0-1.4,2.46,1.949,1.949,0,0,0,.919,1.195,3.069,3.069,0,0,1,.628.375l-.4-.313a3.357,3.357,0,0,1,.5.5l-.313-.4a4.841,4.841,0,0,1,.59,1.029l-.2-.477a3,3,0,0,1,.192.705l-.072-.532a2.783,2.783,0,0,1-.012.632l.071-.532a3.147,3.147,0,0,1-.2.713l.2-.477a3.418,3.418,0,0,1-.405.691l.312-.405a2.523,2.523,0,0,1-.382.391l.4-.313a1.789,1.789,0,0,1-.31.19l.478-.2a1.779,1.779,0,0,1-.443.112l.532-.071a5.093,5.093,0,0,1-1.252-.025l.532.072a3.4,3.4,0,0,1-.751-.186l.478.2a3.263,3.263,0,0,1-.686-.4l.4.313a4.283,4.283,0,0,1-.715-.728l.313.405a3.672,3.672,0,0,1-.421-.705l.2.477a1.939,1.939,0,0,1-.133-.466l.072.532a3.065,3.065,0,0,1,.007-.7l-.072.531a2.9,2.9,0,0,1,.19-.72l-.2.477a3.011,3.011,0,0,1,.321-.548l-.313.405a3.288,3.288,0,0,1,.572-.571l-.405.313a3.286,3.286,0,0,1,.637-.368l-.478.2a2.987,2.987,0,0,1,.713-.193l-.532.071a2.23,2.23,0,0,1,.469-.01l-.531-.071a3.771,3.771,0,0,1,.836.254l-.478-.2.061.026a2.2,2.2,0,0,0,1.542.2,2.047,2.047,0,0,0,1.195-.919,2.02,2.02,0,0,0,.2-1.542A1.922,1.922,0,0,0,287.808,219.488Z"/><path class="c" d="M247.441,255.459c.933,14.63,1.632,29.276,2.275,43.922.686,15.592,1.183,31.191,1.844,46.784.416,9.809.835,19.617,1.172,29.429.089,2.567,4.089,2.579,4,0-.6-17.5-1.469-34.988-2.073-52.488q-.761-22.046-1.9-44.079c-.4-7.858-.817-15.716-1.318-23.568-.163-2.557-4.164-2.575-4,0Z"/><path class="c" d="M284.458,285.331c-.614,14.874-1.08,29.758-1.811,44.627-.478,9.735-1.027,19.466-1.512,29.2-.274,5.519-.549,11.038-.742,16.56-.09,2.574,3.91,2.571,4,0,.367-10.489.958-20.971,1.508-31.451q.8-15.3,1.417-30.6.567-14.169,1.14-28.339c.106-2.574-3.9-2.569-4,0Z"/><path class="c" d="M319.034,255.926c-.348,14.676-.941,29.346-1.484,44.016q-.863,23.24-1.421,46.486c-.219,9.723-.436,19.445-.736,29.166-.079,2.575,3.921,2.572,4,0,.534-17.3.793-34.609,1.325-51.909.451-14.689,1.055-29.374,1.577-44.06.281-7.9.551-15.8.739-23.7.061-2.575-3.939-2.574-4,0Z"/><path class="c" d="M284.485,285.316c.51,14.944.882,29.893,1.413,44.836.331,9.34.8,18.675,1.18,28.012.24,5.85.482,11.7.654,17.554.076,2.568,4.076,2.579,4,0-.322-10.983-.833-21.961-1.305-32.937-.456-10.623-.816-21.245-1.139-31.873-.26-8.531-.512-17.062-.8-25.592-.088-2.567-4.088-2.579-4,0Z"/><path class="c" d="M254.732,377.594c4.326.432,8.792.2,13.132.211,4.841.007,9.688.027,14.529-.087,2.57-.061,2.579-4.061,0-4-4.841.114-9.688.094-14.529.087-4.34-.007-8.806.221-13.132-.211a2.014,2.014,0,0,0-2,2,2.045,2.045,0,0,0,2,2Z"/><path class="c" d="M317.393,373.594c-4.326.432-8.792.2-13.132.211-4.841.007-9.688.027-14.529-.087-2.575-.061-2.574,3.939,0,4,4.841.114,9.688.094,14.529.087,4.34-.007,8.806.221,13.132-.211a2.056,2.056,0,0,0,2-2,2.014,2.014,0,0,0-2-2Z"/><path class="c" d="M265.027,155.914c1.417-.584,2.785-1.287,4.178-1.925.105-.048.21-.094.315-.143.25-.115-.549.229-.351.148a6.248,6.248,0,0,0,.575-.251,8.648,8.648,0,0,0,1.871-1.394,9.064,9.064,0,0,0,2.161-3.452,17.412,17.412,0,0,0,.807-3.71,2.21,2.21,0,0,0-.2-1.541,2,2,0,0,0-3.656.478,20.908,20.908,0,0,1-.608,3.109c-.066.221-.142.437-.22.655a1,1,0,0,0-.063.162c0,.008.185-.4.087-.208-.063.123-.116.251-.179.374a6.775,6.775,0,0,1-.4.677c-.041.062-.287.4-.1.151s-.117.127-.175.191c-.184.2-.383.38-.584.561-.276.247.267-.177-.047.04-.145.1-.289.2-.439.293-.37.229-.023.027.111.008a2.447,2.447,0,0,0-.524.22l-.258.115c-.664.3-1.323.614-1.983.924l-1.141.535c-.234.109-1.214.528-.237.126a2.2,2.2,0,0,0-1.2.919,2.043,2.043,0,0,0-.2,1.541,2.021,2.021,0,0,0,2.461,1.4Z"/><path class="c" d="M295.145,143.965c.336,2.609.682,5.324,2.338,7.468A8.594,8.594,0,0,0,299.066,153a8.337,8.337,0,0,0,1.011.694,4.12,4.12,0,0,0,.638.29c.109.038-.617-.273-.343-.144.662.312,1.329.614,1.991.925s1.339.653,2.022.943a2.2,2.2,0,0,0,1.542.2,2.044,2.044,0,0,0,1.195-.919,2.022,2.022,0,0,0-.718-2.737c-.748-.317-1.476-.687-2.212-1.032q-.681-.32-1.364-.637c-.145-.067-.291-.134-.437-.2a5.59,5.59,0,0,0-.573-.243c-.156.031.431.237.205.054a5.136,5.136,0,0,0-.482-.31q-.273-.2.03.033c-.079-.062-.156-.127-.231-.193-.213-.185-.7-.539-.788-.817q.26.341.07.081c-.051-.072-.1-.145-.148-.219-.094-.145-.182-.3-.265-.447-.033-.061-.172-.441-.225-.456.117.286.135.329.055.131-.03-.077-.06-.155-.088-.233a12.051,12.051,0,0,1-.486-1.869q-.109-.585-.2-1.171-.051-.31-.1-.621l-.039-.281c.041.307.047.353.019.136a2.055,2.055,0,0,0-2-2c-.969.044-2.143.889-2,2Z"/><path class="c" d="M300.087,151.1a35.216,35.216,0,0,1,5.843,4.233,25.822,25.822,0,0,1,2.2,2.187,7.692,7.692,0,0,1,.7.9q.124.191.237.388c.295.525-.058-.269.1.211l.919-2.258c-1.67,1-3.254,2.129-4.816,3.287a30.38,30.38,0,0,1-2.856,2.1,2.015,2.015,0,0,0-.405,3.142,53.44,53.44,0,0,1,4.356,4.185l-.313-2.424a19.591,19.591,0,0,0-1.557,2.812c-1.015,1.946-2.006,3.9-3,5.861-2.383,4.7-4.748,9.4-7.2,14.063-1.2,2.276,2.252,4.3,3.454,2.019,2.454-4.66,4.819-9.367,7.2-14.063.993-1.957,1.984-3.915,3-5.861a19.441,19.441,0,0,1,1.557-2.812,2.01,2.01,0,0,0-.313-2.424,53.284,53.284,0,0,0-4.356-4.185l-.405,3.141a30.227,30.227,0,0,0,2.857-2.1c1.562-1.157,3.146-2.288,4.816-3.286a2.033,2.033,0,0,0,.919-2.259c-.67-2.08-2.419-3.76-3.99-5.2a40.037,40.037,0,0,0-6.929-5.109c-2.233-1.291-4.249,2.164-2.019,3.454Z"/><path class="c" d="M268.531,147.94a57.641,57.641,0,0,0-6.716,4.749c-1.73,1.4-3.852,3.07-4.573,5.269a2.048,2.048,0,0,0,.919,2.258c2.476,1.793,5.213,3.572,7.539,5.389v-2.829c-1.433,1.4-3.245,2.5-4.527,4.036a2.083,2.083,0,0,0,0,2.829c-.574-.732-.091-.106.037.073.166.231.329.464.492.7q.738,1.051,1.469,2.109,2.22,3.2,4.438,6.4c3.007,4.325,5.985,8.684,9.167,12.882a2.066,2.066,0,0,0,2.737.718,2.014,2.014,0,0,0,.717-2.737c-3.243-4.278-6.276-8.721-9.339-13.129-2.277-3.276-4.424-6.7-6.89-9.841v2.829c1.282-1.54,3.1-2.638,4.527-4.036a2.01,2.01,0,0,0,0-2.829c-2.7-2.11-5.572-4-8.348-6.013l.919,2.258c.136-.414-.224.344.058-.095,0,0,.306-.462.154-.254a9.176,9.176,0,0,1,.924-1.017,31.081,31.081,0,0,1,2.667-2.345,50.423,50.423,0,0,1,5.648-3.916c2.209-1.318.2-4.777-2.019-3.454Z"/><path class="c" d="M314.368,111.347a2.221,2.221,0,0,1,3.227.53,5.44,5.44,0,0,1,.386,2.4,14.427,14.427,0,0,1-.2,2.891,15.285,15.285,0,0,1-2.046,5.409,7.527,7.527,0,0,1-1.608,1.884,1.471,1.471,0,0,1-1.563.414c-2.49-.664-3.552,3.194-1.064,3.858,3.162.843,5.64-1.189,7.365-3.649a18.431,18.431,0,0,0,2.988-8.312c.338-2.768.328-6.271-1.911-8.284a6.36,6.36,0,0,0-8.4.035,2.016,2.016,0,0,0,0,2.829,2.043,2.043,0,0,0,2.828,0Z"/><path class="c" d="M309.917,124.116a14.136,14.136,0,0,1-.943,4.034c-.085.241-.181.481-.26.725-.107.332.223-.41.039-.1-.157.266-.272.563-.417.837a34.523,34.523,0,0,1-3.157,4.837c-2.832,3.667-6.6,7.477-11.292,8.506-2.513.551-1.45,4.408,1.063,3.858,5.557-1.218,10.008-5.587,13.371-9.941,2.876-3.723,5.386-7.923,5.6-12.758.112-2.574-3.889-2.569-4,0Z"/><path class="c" d="M256.046,108.518a6.362,6.362,0,0,0-8.4-.035c-2.3,2.068-2.247,5.687-1.881,8.512a18.156,18.156,0,0,0,3.129,8.323c1.782,2.443,4.437,4.515,7.614,3.815a2,2,0,0,0-1.063-3.858c-1.344.3-2.782-1.476-3.433-2.457a15.044,15.044,0,0,1-2.176-5.5,14.285,14.285,0,0,1-.238-2.845,5.725,5.725,0,0,1,.39-2.595,2.22,2.22,0,0,1,3.227-.53,2.055,2.055,0,0,0,2.828,0,2.016,2.016,0,0,0,0-2.829Z"/><path class="c" d="M253.69,123.562a33.11,33.11,0,0,0,7.607,15.13c4,4.533,9.348,8.282,15.44,9.149a2.067,2.067,0,0,0,2.46-1.4,2.014,2.014,0,0,0-1.4-2.46c-10.486-1.493-18.22-11.6-20.253-21.485-.518-2.52-4.374-1.453-3.857,1.063Z"/><path class="c" d="M318.073,109.212c1.457-8.956.56-18.445-4.436-26.226a34.641,34.641,0,0,0-20.629-14.672,37.034,37.034,0,0,0-25.582,2.814,34.519,34.519,0,0,0-14.05,13.543,33.315,33.315,0,0,0-3.946,12.477A43.929,43.929,0,0,0,250,109.215a2.015,2.015,0,0,0,2.46,1.4,2.048,2.048,0,0,0,1.4-2.46c-1.042-6.437-.906-13.112,1.81-19.148a30.388,30.388,0,0,1,11.049-12.823c13.04-8.551,31.507-5.742,41.508,6.143,6.006,7.138,7.461,16.829,6,25.825a2.062,2.062,0,0,0,1.4,2.46,2.014,2.014,0,0,0,2.46-1.4Z"/><path class="c" d="M305.872,155.776a56.166,56.166,0,0,1,9.895,3.854,29.29,29.29,0,0,1,4.264,2.535c1.538,1.167,2.991,2.472,4.432,3.755,1.916,1.707,4.755-1.112,2.828-2.828q-2.231-1.986-4.558-3.856a29.178,29.178,0,0,0-4.947-3.06,61.715,61.715,0,0,0-10.85-4.257c-2.474-.73-3.531,3.129-1.064,3.857Z"/><path class="d" d="M310.208,153.828a82.964,82.964,0,0,1,8.573,4.449c.142,1.037.125,5.875.178,7.185a107.732,107.732,0,0,0,3.21,23.108l-8.258.5L315.59,202.5a25.258,25.258,0,0,0,7.8,9l.055,1.579c.055,1.611.055,5.444-.094,7.351-.336-.143-.672-.284-1.011-.419-3.043-1.213-5.424-4.851-7.166-7.512a36.215,36.215,0,0,1-4.588-9.587c-1-4.375-1.763-6.755-2-10.444-.3-4.726-.556-7.445-.822-11.573a174.475,174.475,0,0,1-.475-28.15A27.235,27.235,0,0,1,310.208,153.828Z"/><path class="c" d="M324.1,188.038a105.287,105.287,0,0,1-3.184-25.521c-.016-1.325.008-2.664-.106-3.985-.155-1.8-1.6-2.344-3-3.124a52.706,52.706,0,0,0-9.984-4.6,2.022,2.022,0,0,0-2.531,1.928c-.253,4.948-.427,9.9-.316,14.857.107,4.79.537,9.553.86,14.33.668,9.9,1.025,20.048,6,28.923a49.836,49.836,0,0,0,4.418,6.623,14.9,14.9,0,0,0,6.089,4.679,2.035,2.035,0,0,0,3.01-1.727c.214-2.935.219-5.9.223-8.842,0-2.574-4-2.578-4,0,0,2.942-.009,5.907-.223,8.842l3.009-1.727a11.94,11.94,0,0,1-4.921-3.61,40.213,40.213,0,0,1-8.425-19.252c-.823-4.334-.836-8.911-1.14-13.309-.324-4.674-.743-9.337-.878-14.022-.151-5.258.025-10.514.293-15.765l-2.532,1.929A51.757,51.757,0,0,1,317.771,160l-.99-1.726a49.975,49.975,0,0,1,.143,5.251c.026,2.2.137,4.393.3,6.586A104.876,104.876,0,0,0,320.24,189.1c.653,2.488,4.513,1.433,3.857-1.063Z"/><path class="c" d="M243.364,192.905c-.141.195-.284.387-.431.578l.313-.405a22.373,22.373,0,0,1-2.86,3.058,2,2,0,0,0,1.414,3.414,2.192,2.192,0,0,0,1.415-.585,24.667,24.667,0,0,0,3.6-4.041,2.019,2.019,0,0,0,.2-1.541,2.043,2.043,0,0,0-.92-1.2,2.017,2.017,0,0,0-1.541-.2l-.477.2a2.008,2.008,0,0,0-.718.718Z"/><path class="c" d="M320.709,190.17a26.938,26.938,0,0,0,3.948,4.422,2.116,2.116,0,0,0,1.414.586,2.032,2.032,0,0,0,1.414-.586,2,2,0,0,0,0-2.828,24.762,24.762,0,0,1-3.159-3.379l.312.405c-.161-.211-.32-.424-.475-.639a2.161,2.161,0,0,0-1.2-.919,2.043,2.043,0,0,0-1.541.2,2.017,2.017,0,0,0-.919,1.195,1.962,1.962,0,0,0,.2,1.541Z"/><path class="c" d="M298.245,88.043a50.659,50.659,0,0,1-5.374,2.577c-1.458.588-3.429,1.645-5.058,1.495-.6-.055-.468-.008-.658-.557a6.8,6.8,0,0,0-.983-2.159c-1.292-1.613-3.364-1.662-5.238-1.278A31.9,31.9,0,0,0,264.1,97.793a37.1,37.1,0,0,0-5.822,8.73c-1.122,2.306,2.327,4.336,3.454,2.019a30.2,30.2,0,0,1,11.176-12.9A27.836,27.836,0,0,1,282,91.978a2.727,2.727,0,0,1,.911-.1c.262.047.137-.006.171.03.176.19.227.766.307,1a6.073,6.073,0,0,0,.5,1.157,4.639,4.639,0,0,0,4.28,2.046,18.419,18.419,0,0,0,5.98-1.717,59.755,59.755,0,0,0,6.119-2.9c2.258-1.237.242-4.692-2.019-3.454Z"/><path class="c" d="M300.6,96.466a28.055,28.055,0,0,1,1.908,2.719,27.641,27.641,0,0,1,1.609,3.008,23.825,23.825,0,0,1,1.057,2.852,25.248,25.248,0,0,1,.753,3.316,2.007,2.007,0,0,0,2.461,1.4,2.059,2.059,0,0,0,1.4-2.46,29.246,29.246,0,0,0-6.357-13.659,2,2,0,0,0-2.828,0,2.057,2.057,0,0,0,0,2.828Z"/><path class="c" d="M268.057,150.2a150.287,150.287,0,0,0,5.2,15.624c2.448,6.693,5,13.347,7.565,20q1.635,4.234,3.274,8.469a2.057,2.057,0,0,0,2.46,1.4,2.014,2.014,0,0,0,1.4-2.46c-4.66-12.106-9.481-24.165-13.675-36.443-.86-2.521-1.727-5.056-2.361-7.645-.613-2.5-4.471-1.44-3.857,1.064Z"/><path class="i" d="M282.125,239.676a43.854,43.854,0,0,1-2.317,6.859c-.748,1.7-1.624,4.282-3.248,5.357a6.732,6.732,0,0,1-2.43.761c-.141.029-.676.091-.105.022q-.3.036-.609.068c-1.1.111-2.2.172-3.3.224-5.641.27-11.3.279-16.944.256q-1.665-.006-3.329-.026c-.343,0-.686,0-1.029-.018a1.736,1.736,0,0,0-.322-.009c-.2.035-.213-.156-.106-.025l.514.883a7.151,7.151,0,0,1,.115-2.726c.148-1.279.178-2.577.26-3.862q.258-4.038.556-8.073c.393-5.425.843-10.848,1.156-16.279.147-2.571-3.853-2.563-4,0-.463,8.042-1.18,16.068-1.7,24.106-.112,1.75-.241,3.487-.418,5.23-.182,1.8.074,3.76,2,4.462a10.753,10.753,0,0,0,3.492.317q5.955.067,11.911-.021a114.022,114.022,0,0,0,11.6-.49,14.816,14.816,0,0,0,3.114-.628,8.087,8.087,0,0,0,4.311-3.639,42.522,42.522,0,0,0,4.676-11.686c.636-2.5-3.22-3.56-3.857-1.063Z"/><path class="c" d="M299.168,148.839a132.028,132.028,0,0,1-4.642,16.678q-3.219,10.121-6.775,20.131c-.889,2.519-1.785,5.037-2.732,7.535a2.016,2.016,0,0,0,1.4,2.46,2.044,2.044,0,0,0,2.46-1.4c4.507-11.89,8.605-24.025,12.123-36.243a79.851,79.851,0,0,0,2.026-8.1,2.056,2.056,0,0,0-1.4-2.46,2.017,2.017,0,0,0-2.46,1.4Z"/><path class="c" d="M279.885,163.126c.212,1.059.436,2.117.652,3.176.065.32.032-.469-.036-.162a2.045,2.045,0,0,0-.019.282c-.027.378-.059.754-.091,1.131q-.423,5-1.036,9.98a2.011,2.011,0,0,0,2,2,2.049,2.049,0,0,0,2-2q.615-5.049,1.048-10.118a8.451,8.451,0,0,0,.007-2.072c-.168-1.1-.449-2.188-.668-3.281a2,2,0,1,0-3.857,1.064Z"/><path class="c" d="M292.839,178.779c-.509-3.414-.972-6.74-1.395-10.021-.108-.84-.168-1.7-.305-2.531-.023-.136.054-.461-.035.034.054-.3.121-.6.195-.9.142-.569.317-1.13.461-1.7.632-2.5-3.225-3.561-3.857-1.063a13.926,13.926,0,0,0-.769,3.567,25.059,25.059,0,0,0,.31,2.588q.715,5.548,1.538,11.084a2.014,2.014,0,0,0,2.46,1.4,2.051,2.051,0,0,0,1.4-2.46Z"/><path class="c" d="M286.9,157.776q-1.254,0-2.509.006a2.062,2.062,0,0,0-1.414.586,1.489,1.489,0,0,0-.413.643,1.5,1.5,0,0,0-.173.771,2.023,2.023,0,0,0,.586,1.414,2.076,2.076,0,0,0,1.414.586q1.255-.006,2.509-.006a2.071,2.071,0,0,0,1.414-.586,2.222,2.222,0,0,0,.586-1.414,2.021,2.021,0,0,0-.586-1.415,2.073,2.073,0,0,0-1.414-.585Z"/><path class="c" d="M297.5,149.287c-1.227.863-2.561,1.592-3.856,2.345q-2.647,1.54-5.331,3.02c-.614.336-1.227.674-1.853.987a3.882,3.882,0,0,0-1.082.686,2.515,2.515,0,0,0,0,3.442c.885.933,1.927,1.754,2.881,2.616q2.25,2.035,4.5,4.068a2.044,2.044,0,0,0,2.829,0,2.021,2.021,0,0,0,0-2.828l-4.268-3.857q-1.067-.965-2.132-1.93l-.7-.638c-.065-.06-.132-.117-.194-.178-.172-.17.072-.029.125.095l.274,1.01,0-.237-.273,1.009.1-.149-.718.718a20.157,20.157,0,0,1,2.413-1.3q1.749-.957,3.477-1.949c1.954-1.114,3.985-2.184,5.827-3.48a2.053,2.053,0,0,0,.718-2.736,2.017,2.017,0,0,0-2.736-.718Z"/><path class="c" d="M278.55,166.949a35.326,35.326,0,0,0,4.057-3.746c1.075-1.094,2.178-2.183,3.185-3.342a2.536,2.536,0,0,0-.688-4.093c-.491-.252-.984-.5-1.471-.759-1.681-.9-3.348-1.822-5.01-2.756-1.451-.815-2.946-1.6-4.332-2.521a2,2,0,0,0-2.019,3.453c1.777,1.184,3.7,2.176,5.568,3.213q1.668.929,3.347,1.836a19.177,19.177,0,0,1,2.282,1.21l-.717-.717.092.152-.273-1.009c.012-1,.741-1.181.393-.837-.067.066-.128.14-.191.209-.208.226-.419.45-.629.674q-.98,1.041-1.979,2.063c-.725.743-1.456,1.48-2.2,2.2-.32.308-.643.614-.974.911-.137.123-.275.245-.416.364-.061.052-.125.1-.185.154-.246.216.4-.3.145-.113a2.062,2.062,0,0,0-.717,2.737,2.013,2.013,0,0,0,2.736.717Z"/><path class="d" d="M261.524,154.276a31.413,31.413,0,0,1,3.922-1.54A276.5,276.5,0,0,1,265,180.57c-.185,3.777-.914,11.088-1.481,16a58.763,58.763,0,0,1-4,14.074,40.176,40.176,0,0,1-4.874,7.8c-1.794,2.321-4.327,6.092-7.6,6.1.052-2.013.126-5.013.163-6.013l.027-.74a29.229,29.229,0,0,0,6.947-9.816s3.877-13.718,3.877-19.051c-2.444-.222-7.489-.356-7.489-.356a107.732,107.732,0,0,0,3.21-23.108c.053-1.31.036-6.148.178-7.185C255.238,157.509,258.429,155.7,261.524,154.276Z"/><path class="c" d="M252.5,189.1a104.876,104.876,0,0,0,3.019-18.987c.16-2.193.271-4.387.3-6.586a49.967,49.967,0,0,1,.143-5.251l-.99,1.726a51.757,51.757,0,0,1,11.01-5.338l-2.532-1.929a249.822,249.822,0,0,1-.55,29.519c-.342,4.974-.722,10.021-1.468,14.952a49.879,49.879,0,0,1-2.026,8.041q-.468,1.43-1,2.838c-.139.37-.283.738-.429,1.1-.057.144-.115.288-.176.43.185-.437.038-.09-.01.013a45.147,45.147,0,0,1-5.243,8.286c-1.3,1.712-3.1,4.53-5.5,4.626l2,2c-.131-1.927-.271-3.854-.393-5.782-.162-2.556-4.164-2.575-4,0,.122,1.928.262,3.855.393,5.782a2.031,2.031,0,0,0,2,2c2.776-.111,4.973-1.779,6.74-3.8a59.268,59.268,0,0,0,5.127-6.862,46.066,46.066,0,0,0,5.491-13.449c1.41-5.437,1.736-11.178,2.222-16.759.355-4.078.558-8.171.738-12.261.3-6.885.427-13.789.083-20.675a2.022,2.022,0,0,0-2.531-1.928,52.706,52.706,0,0,0-9.984,4.6c-1.4.78-2.844,1.327-3,3.124-.114,1.321-.09,2.66-.106,3.985a105.287,105.287,0,0,1-3.184,25.521c-.655,2.492,3.2,3.555,3.857,1.063Z"/><path class="c" d="M253.622,111.66a5.159,5.159,0,0,0,2.453.63,4.9,4.9,0,0,0,2.032-.318,6.275,6.275,0,0,0,2.213-1.4,7.1,7.1,0,0,0,1.414-2.034,2.161,2.161,0,0,0,.2-1.541,2,2,0,0,0-2.46-1.4,1.955,1.955,0,0,0-1.2.919,6.243,6.243,0,0,1-.7,1.169l.313-.4a4.754,4.754,0,0,1-.788.8l.405-.312a4.082,4.082,0,0,1-.886.519l.477-.2a3.955,3.955,0,0,1-.889.243l.532-.072a3.825,3.825,0,0,1-1.014-.006l.532.072a3.876,3.876,0,0,1-.931-.228l.478.2a1.148,1.148,0,0,1-.172-.094,2,2,0,0,0-2.938,2.258,2.227,2.227,0,0,0,.919,1.2Z"/><path class="c" d="M305.885,108.1a4.474,4.474,0,0,0,2.246,3.912,6.16,6.16,0,0,0,5.832-.351,2.017,2.017,0,0,0,.718-2.737,2.045,2.045,0,0,0-2.737-.717c-.169.089-.34.171-.515.248l.478-.2a5.7,5.7,0,0,1-1.365.394l.531-.072a3.906,3.906,0,0,1-1.036.007l.532.072a3,3,0,0,1-.643-.174l.478.2a2.907,2.907,0,0,1-.62-.36l.4.313a2.407,2.407,0,0,1-.394-.394l.312.4a2.421,2.421,0,0,1-.284-.487l.2.477a2.862,2.862,0,0,1-.179-.661l.071.531c-.017-.135-.027-.269-.031-.4a2.088,2.088,0,0,0-.585-1.415,2,2,0,0,0-3.415,1.415Z"/><path class="c" d="M296.84,93.369c.132.042.26.09.387.143l-.477-.2a8.274,8.274,0,0,1,1.731,1.063l-.4-.313a17.794,17.794,0,0,1,2.518,2.406,2,2,0,0,0,3.414-1.414,2.216,2.216,0,0,0-.586-1.414,18.083,18.083,0,0,0-2.2-2.155,10.138,10.138,0,0,0-3.316-1.971,2.017,2.017,0,0,0-2.46,1.4,2.042,2.042,0,0,0,1.4,2.46Z"/><path class="i" d="M283.457,240.739a49.619,49.619,0,0,0,2.72,7.815c.922,2.084,1.937,4.488,3.68,6.032,2.272,2.014,5.54,2.159,8.43,2.326,6.075.352,12.181.337,18.265.311,1.954-.009,5.215.46,6.9-.732l-2.424-.313c1.118.926,2.755,1.092,3.607-.321a4.722,4.722,0,0,0,.322-2.906c-.3-2.989-.308-6-.407-9.007-.257-7.826-.518-15.654-.6-23.485-.027-2.573-4.027-2.579-4,0,.067,6.5.259,12.994.469,19.49q.151,4.708.308,9.418c.033,1.009.048,2.01.164,3.013.045.386.092.772.117,1.16a2.98,2.98,0,0,0,.022.552c.089.325.008-.174.4-.593l.883-.515-.076.028H323.3l.553.338a2.051,2.051,0,0,0-2.423-.313c-.341.242-.929.148-1.353.155-.926.014-1.853.021-2.78.027q-4.115.024-8.23-.016c-2.9-.028-5.806-.075-8.706-.191-1.161-.047-2.322-.1-3.48-.194-.445-.035-.888-.08-1.331-.127-.37-.039.4.092-.128-.019-.309-.064-.62-.116-.928-.189a4.006,4.006,0,0,1-2.6-1.6,20.8,20.8,0,0,1-1.79-3.31,43.655,43.655,0,0,1-2.792-7.9c-.636-2.493-4.5-1.436-3.858,1.063Z"/><path class="c" d="M245.9,167.864c5.407-5.581,12.485-9.275,19.65-12.088a2.059,2.059,0,0,0,1.4-2.46,2.014,2.014,0,0,0-2.46-1.4c-7.814,3.067-15.512,7.023-21.415,13.117-1.793,1.849,1.033,4.681,2.828,2.828Z"/><path class="e" d="M315.144,201.228c1.958,2.4,4.549,3.063,7.626,2.724,2.176-.24,3.216-1.4,4.552-3.134a9.08,9.08,0,0,0,1.91-4.158c.37-2.089-.325-4.388-1.046-6.384-1.539-4.255-2.281-7.184-5.187-10.653-2.643-3.156-6.79-4.161-10.922-4.223-.568.013-1.736.034-1.736.034-2.011.037-3.607.557-4.469,2.085a3.838,3.838,0,0,0,.624,4.556c-1.9-.022-3.195.861-3.427,2.546s.477,3.567,1.98,4.028a3.068,3.068,0,0,0-1.663,3.024c.129,1.091.949,2.936,2.247,3.171-1.334.381-1.457,2.511-.622,3.865s2.58,1.712,4.164,1.863,4.429.107,5.542.579"/><path class="c" d="M313.73,202.642c2.894,3.393,8.837,4.759,12.639,2.029a13.143,13.143,0,0,0,4.255-5.623,11.837,11.837,0,0,0-.088-8.074c-1.459-4.591-3.073-9.429-6.375-13.055-3.32-3.646-8.45-4.588-13.165-4.5-2.208.043-4.5.322-6.079,2.041-2.206,2.4-1.782,5.657.164,8.026l1.415-3.414c-2.528.047-4.883,1.361-5.356,4.015a5.653,5.653,0,0,0,3.377,6.487l-.477-3.655c-4.175,1.817-3.027,8.732,1.061,9.85v-3.857c-3.67,1.421-3.178,6.536-.185,8.456a10.091,10.091,0,0,0,4.83,1.245,16.091,16.091,0,0,1,4.439.463c2.42.891,3.463-2.974,1.064-3.857-1.9-.7-4.092-.447-6.074-.65a3.792,3.792,0,0,1-2.339-.756,1.446,1.446,0,0,1-.347-.825,3.141,3.141,0,0,0,0-.322c-.077-.385.165-.084-.32.1,1.745-.675,2.045-3.3,0-3.857-1.007-.275-1.019-2.142-.107-2.539,1.752-.763.931-3.119-.477-3.656-.549-.209-.642-1.425-.528-1.873.18-.705.769-.76,1.443-.772a2.027,2.027,0,0,0,1.414-3.415,1.818,1.818,0,0,1,.588-2.928,9.312,9.312,0,0,1,3.579-.332c3.334,0,6.93.8,9.256,3.348,2.387,2.617,3.478,5.985,4.636,9.253.654,1.845,1.493,3.815,1.357,5.813a7.9,7.9,0,0,1-2.106,4.452,4.661,4.661,0,0,1-4.309,1.761,5.789,5.789,0,0,1-4.352-2.214c-1.674-1.961-4.492.88-2.829,2.829Z"/><path class="c" d="M306.5,184.075a36.574,36.574,0,0,1,3.79,0,12.776,12.776,0,0,1,2.06.175c-.089-.02-.527-.079-.192-.024l.233.037c.148.025.3.052.441.083a6.584,6.584,0,0,1,.756.2,2.015,2.015,0,0,0,2.46-1.4,2.047,2.047,0,0,0-1.4-2.46,16.045,16.045,0,0,0-4.252-.611,36.222,36.222,0,0,0-3.9-.01,2,2,0,0,0,0,4Z"/><path class="c" d="M305.6,190.792a28.073,28.073,0,0,1,4.12-.178c.678.019,1.35.076,2.024.143.248.025-.539-.081-.133-.018l.221.035q.213.034.426.078a8.524,8.524,0,0,1,.86.218,2.017,2.017,0,0,0,2.46-1.4,2.042,2.042,0,0,0-1.4-2.46,16.5,16.5,0,0,0-4.334-.595,28.027,28.027,0,0,0-4.247.174,2.191,2.191,0,0,0-1.415.586,2.028,2.028,0,0,0-.585,1.414c.043.977.887,2.134,2,2Z"/><path class="c" d="M306.374,196.546a38.634,38.634,0,0,1,4.775.183l-.532-.071a9.119,9.119,0,0,1,1.465.305,2.02,2.02,0,0,0,2.461-1.4,2.042,2.042,0,0,0-1.4-2.46,14.708,14.708,0,0,0-3.562-.511c-1.069-.054-2.14-.044-3.21-.049a2,2,0,0,0,0,4Z"/><path class="e" d="M256.439,203.485c-2.1,2.274-4.727,2.781-7.777,2.255-2.158-.372-3.125-1.593-4.352-3.406a9.07,9.07,0,0,1-1.654-4.267c-.242-2.108.592-4.36,1.434-6.308,1.795-4.153,2.715-7.031,5.826-10.317,2.832-2.989,7.031-3.739,11.16-3.549.566.048,1.73.14,1.73.14,2,.159,3.566.775,4.334,2.353a3.838,3.838,0,0,1-.9,4.509c1.894.094,3.136,1.055,3.265,2.752s-.694,3.53-2.222,3.9a3.069,3.069,0,0,1,1.475,3.12c-.195,1.081-1.126,2.873-2.436,3.028,1.308.461,1.3,2.595.385,3.9s-2.68,1.552-4.27,1.606-4.427-.163-5.567.24"/><path class="c" d="M255.025,202.071c-1.949,2.017-5.959,2.853-8.035.536a9.289,9.289,0,0,1-2.281-4.283,9.7,9.7,0,0,1,1.041-5.4c1.283-3.092,2.486-6.39,4.636-9,2.4-2.922,5.57-4.019,9.291-4.055a14.364,14.364,0,0,1,4.336.393,1.844,1.844,0,0,1,.812,3.221,2.026,2.026,0,0,0,1.415,3.414c.554.045,1.109.177,1.265.752.161.594-.106,1.767-.754,1.97-1.548.485-2.08,2.838-.478,3.655.937.478.448,2.3-.483,2.493-1.606.336-2.033,2.941-.477,3.655.57.262.023.014.021-.1a1.5,1.5,0,0,1,.019.293,3.246,3.246,0,0,1-.269.824c-.5.688-1.715.716-2.475.75-2.058.09-4.266-.283-6.27.318-2.46.738-1.412,4.6,1.063,3.857a14.7,14.7,0,0,1,4.15-.159,10.281,10.281,0,0,0,5.05-.934c2.711-1.514,4.243-6.69.73-8.3l-.478,3.655c4.263-.89,5.4-7.785,1.438-9.8l-.478,3.655a5.627,5.627,0,0,0,3.654-6.137c-.308-2.814-2.591-4.231-5.228-4.442l1.414,3.415a5.982,5.982,0,0,0,1.06-7.218c-1.213-2.072-3.467-2.811-5.723-3.041-4.336-.442-9.123-.155-12.768,2.5-3.977,2.9-5.833,7.446-7.7,11.811-1.034,2.425-2.146,5-1.872,7.7a13.059,13.059,0,0,0,3.081,6.859c3.465,4.343,10.474,3.743,14.116-.026,1.79-1.852-1.035-4.684-2.828-2.829Z"/><path class="c" d="M266.24,182.9a36.712,36.712,0,0,0-3.893-.227,16.035,16.035,0,0,0-4.278.383,2,2,0,0,0,1.063,3.857c.12-.033.239-.061.361-.086a1.481,1.481,0,0,0,.406-.07c-.044.033-.578.067-.224.03.077-.007.154-.017.23-.024.161-.016.323-.029.484-.04.688-.047,1.378-.057,2.067-.049a36.537,36.537,0,0,1,3.784.226,1.994,1.994,0,0,0,1.414-.585,2,2,0,0,0,0-2.829,2.322,2.322,0,0,0-1.414-.586Z"/><path class="c" d="M267.257,189.727a31.666,31.666,0,0,0-4.7-.5,16.543,16.543,0,0,0-4.423.361,2.019,2.019,0,0,0-1.4,2.46,2.042,2.042,0,0,0,2.461,1.4c.257-.063.525-.088.78-.153-.051.013-.492.06-.211.029.093-.01.185-.021.278-.03.153-.015.307-.027.461-.037.682-.044,1.367-.048,2.051-.027s1.37.067,2.053.136c.166.017.332.035.5.054l.305.038c.265.032-.435-.064-.175-.023.319.05.637.1.954.155a2.045,2.045,0,0,0,2.46-1.4,2.025,2.025,0,0,0-1.4-2.46Z"/><path class="c" d="M265.6,195.351a23.437,23.437,0,0,0-6.79.178,2.019,2.019,0,0,0-1.4,2.46,2.041,2.041,0,0,0,2.46,1.4c.252-.06.5-.106.761-.142l-.531.072a29.519,29.519,0,0,1,5.5.035,2.012,2.012,0,0,0,2-2,2.046,2.046,0,0,0-2-2Z"/><path class="c" d="M278.7,132.817a9.963,9.963,0,0,0,11.9,0,2,2,0,0,0-2.828-2.828c-.077.075-.371.31-.042.055s-.04.018-.137.078c-.117.072-.239.139-.362.2-.081.041-.174.073-.252.118.1-.058.465-.177.15-.069a8.4,8.4,0,0,1-1.206.33c-.151.028-.49.172-.019.014a1.705,1.705,0,0,1-.371.038c-.294.024-.59.036-.885.036-.271,0-.542-.01-.811-.03a2.729,2.729,0,0,0-.447-.044c.192-.023.352.053.047,0a7.382,7.382,0,0,1-1.222-.323c-.161-.059-.42-.229.1.05-.069-.036-.142-.064-.212-.1-.137-.068-.271-.141-.4-.221-.1-.061-.192-.136-.291-.2.577.351.276.224.113.064a2,2,0,1,0-2.828,2.828Z"/><path class="c" d="M283.666,120.273a26.062,26.062,0,0,1,.619,2.831l-.071-.532a1.763,1.763,0,0,1,.01.391l.072-.532a1.051,1.051,0,0,1-.043.176l.2-.478a.688.688,0,0,1-.062.113l.313-.405a.565.565,0,0,1-.092.091l.4-.312a1.708,1.708,0,0,1-.224.118l.478-.2a1.67,1.67,0,0,1-.378.11l.532-.071a1.505,1.505,0,0,1-.355,0l.532.071c-.134-.018-.265-.051-.4-.069a1.526,1.526,0,0,0-.8-.036,1.5,1.5,0,0,0-.743.238,2,2,0,0,0-.718,2.736,1.912,1.912,0,0,0,1.195.919c.353.048.7.136,1.056.152a3.462,3.462,0,0,0,1.617-.394,2.451,2.451,0,0,0,1.324-1.6,3.788,3.788,0,0,0-.013-1.665c-.154-.912-.365-1.816-.6-2.71a2,2,0,0,0-2.46-1.4,2.017,2.017,0,0,0-1.195.919,2.1,2.1,0,0,0-.2,1.541Z"/><path class="c" d="M269.4,112.687c-.462,1.5-.161,4.957,2.685,5.251,3.76-.023,3.96-4.2,2.694-6.164C273.739,110.167,270.691,109.5,269.4,112.687Z"/><path class="c" d="M299.386,112.687c.463,1.5.162,4.957-2.684,5.251-3.76-.023-3.96-4.2-2.695-6.164C295.044,110.166,298.091,109.5,299.386,112.687Z"/><path class="c" d="M324.463,165.92a51.89,51.89,0,0,1,6.568,6.731,76.375,76.375,0,0,1,4.771,7.266,50.831,50.831,0,0,1,6.517,15.561,24.817,24.817,0,0,1,.627,7.409,18.454,18.454,0,0,1-1.37,6.1c-1.957,3.94-7.482,5.538-11.451,4.035-5-1.894-9.385-6.688-11.6-11.452a2.017,2.017,0,0,0-2.737-.717,2.046,2.046,0,0,0-.717,2.736,27.353,27.353,0,0,0,12.119,12.483,14.025,14.025,0,0,0,15.49-2.053,12.068,12.068,0,0,0,3.55-6.538,25.518,25.518,0,0,0,.711-7.988,48.344,48.344,0,0,0-5.845-18.368,103.412,103.412,0,0,0-5.776-9.314,49.691,49.691,0,0,0-8.031-8.718c-1.91-1.716-4.748,1.1-2.828,2.828Z"/><path class="c" d="M252.74,204.792a35.377,35.377,0,0,1-9.9,13.375,10.4,10.4,0,0,1-4.533,2.341,9.94,9.94,0,0,1-6.853-1.607c-5.114-3.358-3.792-10.673-2.852-15.79a66.578,66.578,0,0,1,5.8-17.051,85.214,85.214,0,0,1,11.5-18.2c1.663-1.947-1.153-4.79-2.828-2.828a88.266,88.266,0,0,0-11.652,18.046,71.22,71.22,0,0,0-6.749,19.384c-1.121,6.382-2.157,14.395,3.535,18.979a13.119,13.119,0,0,0,15.082,1.273c5.8-3.582,10.17-9.784,12.909-15.907a2.062,2.062,0,0,0-.717-2.737,2.015,2.015,0,0,0-2.736.718Z"/><path class="j" d="M110.359,153.076c-1.45.01-12.4-.558-19.226,1.258a7.888,7.888,0,0,0-4.9,3.028c-.829,1.265-1.378,3.132-1.3,6.243.136,5.25.4,42.835,1.881,58.02.265,2.716.606,5.627,2.278,7.678,2.3,2.822,6.207,3,9.654,2.975,18.192-.157,37.3-.291,55.5-.448,5.05-.043,9.143-4.456,9.152-9.954.024-14.7-1.462-50.453-1.864-59.4a11.95,11.95,0,0,0-2.308-6.972,9.406,9.406,0,0,0-4.55-2.611c-6.672-1.834-18.75-1.1-20.058-.972"/><path class="c" d="M87.846,227.081a21.646,21.646,0,0,1-1.031-5.456q-.048-.494-.094-1.02a32.726,32.726,0,0,0,4.39-4.562c-.009.232-.015.425-.015.425,0,2,.074,4.222.259,6.074.29-.093.567-.192.833-.3-.156,3.013-.418,5.961-.765,8.891a6.823,6.823,0,0,1-2.33-1.832A7.885,7.885,0,0,1,87.846,227.081Z"/><path class="c" d="M110.359,151.076c-3.771,0-7.521-.137-11.291.111-4.76.313-11.272.625-14.345,4.855-2.059,2.833-1.8,6.5-1.747,9.82.046,2.913.084,5.826.129,8.739.137,8.89.308,17.78.6,26.665.143,4.331.314,8.661.563,12.987.233,4.049.235,8.45,1.326,12.367a9.612,9.612,0,0,0,5.029,6.347,18.578,18.578,0,0,0,8.12,1.311c6.98-.039,13.96-.116,20.939-.171q10.566-.083,21.133-.165,5.285-.043,10.57-.087c2.845-.024,5.515.011,8.066-1.429a11.619,11.619,0,0,0,4.849-5.436,16.292,16.292,0,0,0,1.088-6.84c-.02-3.934-.1-7.869-.2-11.8-.237-9.485-.574-18.968-.939-28.449q-.222-5.791-.465-11.582a55.922,55.922,0,0,0-.618-8.882,10.7,10.7,0,0,0-3.8-6.48,15.6,15.6,0,0,0-7.121-2.6,76.537,76.537,0,0,0-14.283-.614c-1.115.039-2.234.08-3.346.181a2.054,2.054,0,0,0-2,2,2.015,2.015,0,0,0,2,2,84.063,84.063,0,0,1,9.51-.226,58.363,58.363,0,0,1,6.736.469c2.15.3,4.559.71,6.3,2.11,2.526,2.033,2.36,5.868,2.487,8.8q.206,4.778.4,9.554.525,13.1.937,26.21c.129,4.271.246,8.542.327,12.813q.051,2.668.077,5.337a17.966,17.966,0,0,1-.387,5.5,7.792,7.792,0,0,1-3.7,4.564c-2.314,1.253-5.287.8-7.817.82q-9.91.082-19.821.158-9.951.078-19.9.157-5.031.04-10.061.084c-2.325.02-4.858.167-7.051-.756-4.122-1.736-3.842-7.543-4.118-11.312-.28-3.816-.463-7.64-.618-11.463-.351-8.6-.545-17.21-.7-25.818-.1-5.64-.155-11.281-.267-16.921a10.45,10.45,0,0,1,.775-5.23c1.049-1.922,3.4-2.433,5.374-2.842a64.563,64.563,0,0,1,13.79-.919c1.159.014,2.318.068,3.477.067,2.573,0,2.578-4,0-4Z"/><path class="b" d="M76.649,315.991c3.1-24.459,8.552-48.525,12.927-72.771a164.608,164.608,0,0,0,2.613-20.974l.425-8.211c-3.65,5.211-8.272,9.135-11.462,9.6-4.385.638-9.234-1.6-10.992-5.665a14.418,14.418,0,0,1-.811-6.726c.72-10.434,4.281-18.9,9.375-28.036a74.776,74.776,0,0,1,6.185-9.3,48.824,48.824,0,0,1,17.443-12.341c5.559,2.84,14.05,5.7,22.062,5.722.135,0,.271,0,.408,0a54.16,54.16,0,0,0,21.716-5.583,59.635,59.635,0,0,1,6.859,3.612,45.232,45.232,0,0,1,8.621,6.794s1.427,1.5,3.393,3.5c.387.477,1.292,1.463,1.6,1.915,5.625,8.222,10.035,15.922,10.753,25.707a23.9,23.9,0,0,1-1.443,8.617c-1.755,3.815-6.6,5.911-10.974,5.313-2.372-.324-5.444-2.188-8.174-4.741.161,4.809.263,7.878.263,7.878a135.625,135.625,0,0,0,2.718,22.92c5.829,28.225,10.273,46.077,13.212,75.076l.045.439-.309.339c-1.414,1.556-11.835,3-20.986,3.455-9.3.451-19.62.471-25.846.471-5.424,0-18.169-.317-27.647-1.023-9.735-.711-19.553-1.386-22.339-3.027l.078-.654Q76.5,317.143,76.649,315.991Z"/><path class="e" d="M116.232,322.824c-5.6-.163-12.147-.441-17.607-.847l-2.268-.166.151,2.673c.873,10.85,3.2,38.081,3.124,52.342a9.353,9.353,0,0,1-.41,3.26,7.485,7.485,0,0,1-1.475,2.344c2.443,2.509,6.215,3.193,9.631,2.494s6.464-2.54,9.436-4.367a48.129,48.129,0,0,1,.248-7.036l1.264-14.714c.646-7.522,2.122-25.891,2.768-33.414,0,0,.085-.98.219-2.447C119.764,322.917,118.047,322.876,116.232,322.824Z"/><path class="e" d="M153.425,324.338c.051-.371.152-1.109.26-1.9q-.788.048-1.567.086c-8.236.4-17.279.461-23.564.47.132,1.21.242,2.278.242,2.278.578,7.527,1.888,25.909,2.466,33.437l1.131,14.725a49.415,49.415,0,0,1,.2,6.836,2.035,2.035,0,0,1,.3.155c3.038,1.867,6.151,3.779,9.644,4.494a10.624,10.624,0,0,0,9.3-2.168,7.819,7.819,0,0,1-1.663-2.591,9.387,9.387,0,0,1-.38-3.263c.048-14.262,2.589-43.013,3.6-52.313Z"/><path class="e" d="M151.745,119.488a4.15,4.15,0,0,1,3.322-.972,3.921,3.921,0,0,1,2.818,1.874,5.535,5.535,0,0,1,.58,2.229,16.6,16.6,0,0,1-1.693,8.8,10.557,10.557,0,0,1-2.73,3.583c-.968.772-2.718.715-3.931.931-.232.773-.469,1.412-.595,1.776-.943,2.439-6.214,11.079-12.848,14.262.09.922.221,1.976.451,3.221.34,1.98,1.2,3.9,3.05,4.76.89.411,3.176,1.219,5.611,2.064-5.317,2.689-14.456,5.283-21.51,5.264-7.572-.019-15.572-2.576-21.126-5.251,2.222-.95,4.784-2.057,4.895-2.1,1.77-.67,2.62-2.61,2.99-4.74.221-1.275.382-2.117.482-3.091a27.342,27.342,0,0,1-8.08-6.487,26.306,26.306,0,0,1-5.27-9.641,4.222,4.222,0,0,1-4.429-.971A10.554,10.554,0,0,1,91,131.423a16.613,16.613,0,0,1-1.694-8.8,5.551,5.551,0,0,1,.58-2.229,3.923,3.923,0,0,1,2.819-1.874,4.152,4.152,0,0,1,3.322.972s2.548-17.761,28.1-17.761S151.745,119.488,151.745,119.488Z"/><path class="k" d="M93.589,102.356h-.01c-2.25,1.52-7.46,2.22-9.52,2.06a14.286,14.286,0,0,1-6.62-2.36c4.4-2.1,7.9-6.93,9.05-11.7.98-4.04,1.56-8.09,4.15-11.49a16.375,16.375,0,0,1,9.46-5.91,17.117,17.117,0,0,1,10.19,1.03c1.76.84,4.09,1.92,5.49,4.35a24.078,24.078,0,0,1,1.25,2.24s2.882,7.67-5.118,13c-4.312,2.875-7.464,3.3-11,5.111C96.355,101.023,93.589,102.356,93.589,102.356Z"/><path class="k" d="M101.652,117c6.776-3.395,14.389-9.761,20.764-13.958-.8,2.038-2.457,6.427-1.359,6.245,4.17-.173,9.68-3.315,13.542-7.826,1.269,4.042,4.852,8.424,9.229,11.547.289.21.609.382.884.613,1.81,1.517,2.7,2.267,4.31,3.517.586.455,2.287,1.905,3.04,1.973.835.075,1.681-.58,2.638-.612a29.555,29.555,0,0,0,.819-9.194c-.526-12.061-6.778-19.556-12.9-23.7a31.965,31.965,0,0,0-18.6-5.753,33.533,33.533,0,0,0-19.246,5.958A30.846,30.846,0,0,0,92.513,109.3a38.2,38.2,0,0,0,.628,9.177,4.1,4.1,0,0,1,2.682.85l2.474-.863a14.328,14.328,0,0,0,3.622-1.656"/><path class="c" d="M102.549,164.443q2.04-.864,4.075-1.743l1.721-.739.516-.22c-.9.388-.075.035.08-.03,3.664-1.546,4.2-6.133,4.568-9.595a2,2,0,0,0-2-2,2.057,2.057,0,0,0-2,2c-.011.111-.067.8-.02.217-.016.2-.059.4-.091.6-.062.386-.13.772-.2,1.157a14.718,14.718,0,0,1-.523,2.264c-.034.1-.068.192-.105.288-.083.208-.074.188.027-.062a1.831,1.831,0,0,1-.267.522c-.072.124-.151.242-.228.363q-.192.266.06-.069-.089.107-.183.207c-.063.066-.128.131-.195.193-.164.141-.134.123.09-.052-.054.091-.258.176-.343.225-.129.074-.477.227-.036.04l-.081.033c-2.307.954-4.588,1.972-6.887,2.945a2,2,0,0,0-.717,2.736,2.064,2.064,0,0,0,2.736.718Z"/><path class="c" d="M134.669,151.986c.356,3.563.875,8.031,4.572,9.734,1.381.635,2.839,1.118,4.271,1.622q2.763.974,5.536,1.922a2.013,2.013,0,0,0,2.46-1.4,2.048,2.048,0,0,0-1.4-2.46c-2.991-1.023-5.984-2.048-8.937-3.176-.35-.134.4.2.086.035-.138-.072-.281-.133-.416-.211-.04-.022-.447-.287-.256-.149.159.114-.229-.208-.277-.256s-.384-.433-.257-.27c.147.19-.13-.2-.155-.239q-.146-.231-.268-.474c-.045-.088-.219-.517-.1-.195a12.379,12.379,0,0,1-.572-2.294c-.163-.952-.193-1.209-.292-2.192a2.045,2.045,0,0,0-2-2,2.022,2.022,0,0,0-2,2Z"/><path class="c" d="M118.756,79.566a15.224,15.224,0,0,0-2.955-4.423,15.758,15.758,0,0,0-4.375-2.823,18.679,18.679,0,0,0-12.242-1.2,18.405,18.405,0,0,0-10.271,6.738c-2.769,3.693-3.3,8.19-4.492,12.505a15.923,15.923,0,0,1-7.991,9.968,2.018,2.018,0,0,0,0,3.454,15.806,15.806,0,0,0,9.452,2.608c2.9-.2,6.209-.711,8.707-2.308l-1.01.273h.01c2.574,0,2.579-4,0-4a4.345,4.345,0,0,0-1.829.728,10.624,10.624,0,0,1-1.563.543,21.35,21.35,0,0,1-3.873.729,12.307,12.307,0,0,1-7.875-2.027v3.454A19.114,19.114,0,0,0,86.4,95.939c1.974-3.523,2.364-7.444,3.551-11.237a13.958,13.958,0,0,1,7.1-8.562,14.8,14.8,0,0,1,10.609-.987A14.242,14.242,0,0,1,112.3,77.39a10.893,10.893,0,0,1,3,4.195c1.1,2.327,4.547.3,3.453-2.019Z"/><path class="c" d="M126.8,325.277c1.1,14.415,2.113,28.838,3.22,43.254.418,5.439,1.528,11.418-.5,16.652a2.015,2.015,0,0,0,1.4,2.46,2.046,2.046,0,0,0,2.46-1.4c1.831-4.714,1.252-9.853.874-14.771q-.549-7.154-1.1-14.309c-.538-7.126-1.048-14.253-1.569-21.38q-.384-5.254-.78-10.509c-.195-2.551-4.2-2.572-4,0Z"/><path class="c" d="M151.39,324.589c-1.719,15.889-3.058,31.916-3.52,47.893a41.355,41.355,0,0,0,.05,6.752c.445,3.23,2.82,5.193,4.957,7.4,1.794,1.853,4.62-.977,2.828-2.829-1.625-1.679-3.73-3.142-3.894-5.661-.122-1.871,0-3.79.059-5.663.118-4.07.33-8.138.577-12.2.522-8.59,1.2-17.172,1.975-25.743.3-3.318.61-6.635.968-9.947a2.012,2.012,0,0,0-2-2,2.047,2.047,0,0,0-2,2Z"/><path class="c" d="M131.879,359.275c6.213.251,12.46.143,18.674-.047,2.568-.078,2.579-4.078,0-4-6.214.19-12.461.3-18.674.047-2.574-.1-2.57,3.9,0,4Z"/><path class="c" d="M153.159,120.9a2.073,2.073,0,0,1,3.02.524,5.972,5.972,0,0,1,.346,2.595,13.946,13.946,0,0,1-.322,3.028,13.26,13.26,0,0,1-2.321,5.292,3.343,3.343,0,0,1-1.53,1.266,23.354,23.354,0,0,1-2.6.373,2.012,2.012,0,0,0-1.4,2.46,2.052,2.052,0,0,0,2.46,1.4,12.835,12.835,0,0,0,3.651-.763,8.551,8.551,0,0,0,3.036-2.944,17.885,17.885,0,0,0,2.9-8.088c.324-2.671.3-6.065-1.869-8a6.207,6.207,0,0,0-8.2.034,2.014,2.014,0,0,0,0,2.828,2.043,2.043,0,0,0,2.828,0Z"/><path class="c" d="M148.745,132.5a14.122,14.122,0,0,1-.907,3.963c-.082.238-.179.473-.251.714-.1.333.218-.42.045-.1-.146.267-.261.553-.4.823a34.54,34.54,0,0,1-3.121,4.864c-2.666,3.526-6.306,7.262-10.769,8.26-2.511.562-1.449,4.419,1.063,3.857,5.462-1.222,9.75-5.6,13.012-9.9,2.764-3.644,5.131-7.787,5.33-12.475.109-2.574-3.891-2.569-4,0Z"/><path class="c" d="M97.444,118.074a6.206,6.206,0,0,0-8.2-.034c-2.305,2.074-2.188,5.715-1.8,8.534.706,5.1,4.368,12.825,10.7,11.516a2,2,0,0,0-1.064-3.857c-1.372.284-2.632-1.12-3.357-2.122a14.4,14.4,0,0,1-2.477-8.246,5.585,5.585,0,0,1,.346-2.439,2.075,2.075,0,0,1,3.019-.524,2.056,2.056,0,0,0,2.829,0,2.016,2.016,0,0,0,0-2.828Z"/><path class="c" d="M95.3,132.739a30.257,30.257,0,0,0,7.088,14.71c3.776,4.171,8.748,7.621,14.414,8.444a2.066,2.066,0,0,0,2.46-1.4,2.014,2.014,0,0,0-1.4-2.46c-5.065-.735-9.272-3.686-12.648-7.415a26.434,26.434,0,0,1-6.06-12.945,2.02,2.02,0,0,0-2.461-1.4,2.04,2.04,0,0,0-1.4,2.46Z"/><path class="c" d="M156.754,118.532a34.376,34.376,0,0,0-3.515-24.481,32.788,32.788,0,0,0-15.017-13.2,35.768,35.768,0,0,0-25.632-1.167,31.544,31.544,0,0,0-16.131,11.88c-5.5,7.792-7.028,17.671-5.345,26.955.459,2.529,4.314,1.457,3.857-1.063A31.847,31.847,0,0,1,98.6,95.615a26.848,26.848,0,0,1,12.65-11.168c12.72-5.5,29.02-2.042,37.195,9.53a29.907,29.907,0,0,1,4.456,23.492c-.581,2.5,3.275,3.573,3.858,1.063Z"/><path class="h" d="M146.369,407.4A18.039,18.039,0,0,0,149.708,410a21.893,21.893,0,0,0,13.631,2.8,12.9,12.9,0,0,0,5.793-2.039,7.2,7.2,0,0,0,3.16-5.107c.248-2.929-1.53-5.7-3.613-7.777-5.345-5.32-11.012-10.542-15.734-16.366-2.367,3.258-6.606,4.192-10.406,3.414-3.493-.715-6.606-2.627-9.644-4.494-2.906-1.787-3.344,6.6-3.413,8.422-.109,2.88-.582,6.685,1.7,8.815a23.054,23.054,0,0,0,7.307,3.974C142,402.713,143.809,404.972,146.369,407.4Z"/><path class="c" d="M144.955,408.811A22.374,22.374,0,0,0,156.61,414.6c4.223.709,9.044.535,12.836-1.668a9.081,9.081,0,0,0,4.324-10.917c-1.5-4.176-5.237-7.092-8.308-10.105a146.459,146.459,0,0,1-11.1-11.813c-.9-1.106-2.446-.51-3.141.4-2.924,3.845-8.508,2.89-12.263,1.078-1.21-.583-2.375-1.254-3.525-1.944a8.017,8.017,0,0,0-2.876-1.406,3.5,3.5,0,0,0-3.548,2.176c-1.271,2.538-1.4,5.66-1.525,8.447a22.015,22.015,0,0,0,.294,6.755,8.726,8.726,0,0,0,4.084,5.059,43.3,43.3,0,0,0,7.006,3.225c2.445,1.036,4.211,3.127,6.089,4.92,1.862,1.778,4.695-1.046,2.829-2.828a40.584,40.584,0,0,0-5.148-4.571c-1.836-1.237-3.985-1.692-5.956-2.64-1.556-.748-3.821-1.711-4.692-3.308-.925-1.695-.632-3.941-.543-5.789.118-2.484.045-5.074,1.058-7.362-.115.259.2-.27.223-.366a.185.185,0,0,1-.194.14,6.067,6.067,0,0,0-.631.065c-.2.047-.181-.308-.015,0,.232.44,1.453.889,1.911,1.161a29.808,29.808,0,0,0,7.132,3.272c5.071,1.409,10.481.222,13.743-4.07l-3.141.405c2.537,3.109,5.293,6.026,8.125,8.866,2.785,2.793,5.848,5.411,8.44,8.385,2.107,2.419,3.226,5.776.666,8.3-2.483,2.443-6.648,2.7-9.919,2.414a18.527,18.527,0,0,1-11.059-4.9C145.906,404.224,143.071,407.047,144.955,408.811Z"/><path class="c" d="M119.094,325.393c-1.256,14.651-2.416,29.309-3.674,43.959-.48,5.586-1.485,11.587.556,16.984a2.056,2.056,0,0,0,2.46,1.4,2.015,2.015,0,0,0,1.4-2.46c-1.773-4.689-.936-9.833-.518-14.7q.587-6.84,1.173-13.681.892-10.583,1.745-21.169.424-5.167.861-10.335c.22-2.564-3.781-2.549-4,0Z"/><path class="c" d="M94.508,324.484c1.257,15.611,2.666,31.245,3.061,46.909.049,1.947.095,3.9.059,5.847a5.4,5.4,0,0,1-1.124,3.58c-.843,1.047-1.919,1.915-2.86,2.87-1.809,1.835,1.018,4.665,2.828,2.828,1.784-1.809,3.8-3.428,4.679-5.9.71-1.993.5-4.306.471-6.394-.047-4.057-.217-8.112-.424-12.163-.451-8.846-1.1-17.681-1.8-26.51-.291-3.69-.595-7.378-.892-11.066-.206-2.549-4.207-2.571-4,0Z"/><path class="c" d="M117.722,355.363c-6.215.194-12.461.029-18.672-.216-2.574-.1-2.57,3.9,0,4,6.211.245,12.457.41,18.672.216,2.568-.081,2.579-4.081,0-4Z"/><path class="h" d="M103.659,407.4A18.032,18.032,0,0,1,100.321,410a21.9,21.9,0,0,1-13.632,2.8A12.9,12.9,0,0,1,80.9,410.76a7.2,7.2,0,0,1-3.16-5.107c-.247-2.929,1.53-5.7,3.613-7.777,5.346-5.32,11.012-10.542,15.734-16.366,2.367,3.258,6.606,4.192,10.406,3.414,3.494-.715,6.607-2.627,9.644-4.494,2.907-1.787,3.345,6.6,3.413,8.422.109,2.88.582,6.685-1.7,8.815a23.048,23.048,0,0,1-7.308,3.974C108.028,402.713,106.219,404.972,103.659,407.4Z"/><path class="c" d="M102.134,405.983a18.634,18.634,0,0,1-9.678,4.723c-3.325.589-7.4.438-10.318-1.443a5.4,5.4,0,0,1-2.491-3.5,6.5,6.5,0,0,1,1.364-4.538,27.522,27.522,0,0,1,3.783-4.053c1.438-1.412,2.882-2.817,4.313-4.236a129.6,129.6,0,0,0,9.279-10.016l-3.141-.405c2.872,3.778,7.356,5.158,11.969,4.455a22.357,22.357,0,0,0,7.156-2.657c1.116-.606,2.2-1.269,3.282-1.928.68-.413.547-.247-.018-.229-.058,0-.542-.169-.306-.092a.378.378,0,0,1-.079-.051c.056.2.27.529.441,1.121a16.725,16.725,0,0,1,.446,2.126c.143.944.24,2.252.29,3.359a21.318,21.318,0,0,1-.06,5.587c-.443,1.951-1.953,2.844-3.605,3.769-2.148,1.2-4.57,1.736-6.695,2.946a31.891,31.891,0,0,0-5.932,5.057c-1.866,1.781.965,4.606,2.828,2.828,1.673-1.6,3.233-3.4,5.285-4.523a24.277,24.277,0,0,1,2.882-1.134,30.38,30.38,0,0,0,3.484-1.627c1.9-1.049,3.929-2.332,4.923-4.34a13.551,13.551,0,0,0,.977-6.656c-.123-2.936-.146-6.075-1.1-8.882-.482-1.423-1.284-2.944-2.852-3.366-2.075-.559-4.156,1.438-5.821,2.365-4.065,2.262-10.588,4.4-14.044-.147-.7-.915-2.239-1.511-3.141-.4a132.351,132.351,0,0,1-9.61,10.344c-1.707,1.688-3.431,3.359-5.139,5.046a19.856,19.856,0,0,0-3.978,4.948,9.039,9.039,0,0,0,2.228,11.509c3.338,2.682,8.074,3.331,12.229,2.926a22.983,22.983,0,0,0,13.674-6.058C106.845,407.048,104.012,404.224,102.134,405.983Z"/><path class="c" d="M102.661,118.723c7.458-3.784,13.821-9.363,20.765-13.958l-2.938-2.258a24.233,24.233,0,0,0-1.729,5.566,2.913,2.913,0,0,0,.661,2.57c.912.9,2.233.63,3.365.444,5.133-.843,9.888-4.38,13.228-8.216,1.684-1.933-1.134-4.774-2.828-2.828a24.554,24.554,0,0,1-6.251,5.226,16.941,16.941,0,0,1-3.157,1.45,13.92,13.92,0,0,1-1.591.425c-.179.036-.358.072-.538.095-.286.037-.93-.135-.248.09l.882.514a1.337,1.337,0,0,1,.387.75q.038.269.033-.058c-.125.141.033-.161.08-.352.125-.51.271-1.012.432-1.512.338-1.047.73-2.076,1.131-3.1.635-1.623-1.551-3.176-2.938-2.258-6.944,4.594-13.307,10.173-20.764,13.957-2.3,1.165-.274,4.618,2.018,3.454Z"/><path class="c" d="M132.671,101.989c2.029,6.306,7.431,11.483,13.12,14.606a2,2,0,0,0,2.019-3.454,27.266,27.266,0,0,1-7.191-5.635,19.955,19.955,0,0,1-2.458-3.2,19.182,19.182,0,0,1-1.028-1.85c-.071-.146-.138-.293-.206-.44-.15-.326.019.061-.058-.136-.122-.317-.237-.635-.341-.958a2.043,2.043,0,0,0-2.46-1.4,2.02,2.02,0,0,0-1.4,2.46Z"/><path class="c" d="M155.438,220.3a140.727,140.727,0,0,0,2.414,21.564c1.255,6.549,2.717,13.063,4.094,19.588,2.487,11.79,4.9,23.6,6.727,35.512,1.109,7.232,2,14.493,2.74,21.771l.585-1.414c-.125.138-.247.281-.381.412.243-.238.237-.121-.013-.023-.115.044-.428.211-.134.083-.22.1-.453.17-.681.245a28.413,28.413,0,0,1-3.547.86,96.808,96.808,0,0,1-9.911,1.279c-7.455.638-14.964.727-22.443.792-12.176.106-24.359-.122-36.506-1.01-4.379-.32-8.764-.613-13.128-1.1-1.671-.187-3.342-.4-4.991-.741-.625-.128-1.247-.27-1.857-.454a3.608,3.608,0,0,1-1.111-.44l.991,1.727C81.33,293.657,87,268.8,91.5,243.751a174.387,174.387,0,0,0,2.685-21.5c.138-2.573-3.862-2.565-4,0-.685,12.726-3.381,25.25-5.8,37.732-2.451,12.634-4.974,25.257-7.079,37.954q-1.737,10.476-3.021,21.018a1.949,1.949,0,0,0,.99,1.727,19.341,19.341,0,0,0,6.741,1.771c3.432.488,6.887.79,10.341,1.062,6.867.54,13.736.968,20.621,1.21,12.142.425,24.319.4,36.459-.073a116.711,116.711,0,0,0,19.964-2.114c1.774-.383,3.9-.8,5.213-2.15,1.224-1.254.669-2.934.5-4.5q-.323-3.033-.687-6.06c-1.619-13.469-3.959-26.818-6.682-40.1-3.355-16.363-7.724-32.644-8.31-49.413-.09-2.567-4.09-2.579-4,0Z"/><path class="e" d="M108.838,176.736A11.132,11.132,0,0,1,107,175.45c.123-3.533.2-7.64.117-11.762a49.646,49.646,0,0,0,17.3,3.6c.135,0,.271,0,.408,0a54.661,54.661,0,0,0,17.963-3.863c-.181,4.513-.19,8.1-.035,11.908a10.587,10.587,0,0,1-2.814,1.813,11.245,11.245,0,0,1-8.705-.315A21.8,21.8,0,0,1,124.8,172.3a21.857,21.857,0,0,1-6.429,4.526,11.247,11.247,0,0,1-8.706.315Q109.242,176.958,108.838,176.736Z"/><path class="c" d="M144.727,160.386a48.458,48.458,0,0,1-19.144,4.879c-7.14.248-14.438-1.763-20.87-4.767a2.058,2.058,0,0,0-2.736.718,2.016,2.016,0,0,0,.717,2.736c7.068,3.3,15.028,5.59,22.889,5.313a53.323,53.323,0,0,0,21.163-5.425c2.311-1.133.286-4.584-2.019-3.454Z"/><path class="c" d="M105.579,176.862a12.43,12.43,0,0,0,10.882,2.672c3.787-.815,7.01-3.192,9.756-5.822h-2.828c2.742,2.626,5.969,5.02,9.756,5.822a12.406,12.406,0,0,0,11.022-2.8c1.961-1.674-.88-4.492-2.828-2.828-4.969,4.243-11.14.792-15.122-3.02a2.037,2.037,0,0,0-2.828,0c-3.911,3.743-10.027,7.234-14.982,3.15-1.971-1.626-4.817,1.189-2.828,2.828Z"/><path class="j" d="M143.184,159.513a60.969,60.969,0,0,1,10.206,4.962c.13.942.114,5.335.162,6.524a97.858,97.858,0,0,0,2.915,20.982l-5.823,13.232a22.506,22.506,0,0,0,6.376,7.657c0,.269,0,.413,0,.413,0,2.638.074,4.74.153,7.211-2.635.321-5.676-4.716-6.911-6.574A33.076,33.076,0,0,1,145.953,205c-.907-3.972-1.6-6.133-1.816-9.483-.276-4.291-.5-6.76-.746-10.508a158.46,158.46,0,0,1-.432-25.559Z"/><path class="c" d="M166.825,174.2a74.833,74.833,0,0,0-9.123-8.4,61.545,61.545,0,0,0-13.893-7.39,2.014,2.014,0,0,0-2.46,1.4,2.047,2.047,0,0,0,1.4,2.46,57.626,57.626,0,0,1,12.937,6.987A68.94,68.94,0,0,1,164,177.026c1.8,1.841,4.633-.988,2.828-2.829Z"/><path class="c" d="M158.4,191.449a95.867,95.867,0,0,1-2.886-23.2c-.014-1.214.012-2.447-.1-3.656-.157-1.626-1.531-2.172-2.8-2.879a48.332,48.332,0,0,0-9.115-4.2,2.023,2.023,0,0,0-2.532,1.929c-.248,4.878-.408,9.76-.255,14.644.151,4.84.7,9.656.853,14.5a89.608,89.608,0,0,0,1.071,13.732,34.625,34.625,0,0,0,5.915,13.323,28.642,28.642,0,0,0,3.85,4.554c1.46,1.37,3.394,2.893,5.523,2.745a2.035,2.035,0,0,0,2-2c-.058-2.508-.065-5.018,0-7.526.061-2.575-3.939-2.574-4,0-.06,2.508-.053,5.018,0,7.526l2-2a1.731,1.731,0,0,1-1.215-.4,10.639,10.639,0,0,1-1.938-1.619,24.368,24.368,0,0,1-2.877-3.46,47.594,47.594,0,0,1-3.375-5.77,24.712,24.712,0,0,1-2.059-6.616,83.829,83.829,0,0,1-.9-12.489c-.148-4.594-.659-9.166-.828-13.759-.189-5.129-.031-10.257.23-15.38l-2.531,1.928a47.048,47.048,0,0,1,9.953,4.829l-.991-1.727a44.615,44.615,0,0,1,.129,4.655c.024,2.049.124,4.094.274,6.138a95.541,95.541,0,0,0,2.745,17.244c.652,2.488,4.512,1.433,3.857-1.063Z"/><path class="c" d="M144.052,115.465a34.212,34.212,0,0,0,3.315,2.28c1.164.744,2.335,1.485,3.535,2.172a2,2,0,0,0,2.018-3.454c-1.139-.653-2.252-1.355-3.36-2.061-1.007-.641-2.039-1.27-2.986-2l.405.313c-.033-.026-.066-.052-.1-.079a2.156,2.156,0,0,0-1.414-.586,2,2,0,0,0-1.415,3.414Z"/><path class="c" d="M100.649,115.27c-.639.313-1.283.618-1.938.9l.478-.2a12.059,12.059,0,0,1-2.9.9l.531-.071-.071.009a2.222,2.222,0,0,0-1.414.586,2,2,0,0,0,0,2.828,1.914,1.914,0,0,0,1.414.586,11.65,11.65,0,0,0,1.72-.328c.448-.13.889-.288,1.323-.46.979-.388,1.936-.826,2.881-1.289a2.023,2.023,0,0,0,.919-1.2,2.047,2.047,0,0,0-.2-1.541,2.021,2.021,0,0,0-1.2-.919,2.222,2.222,0,0,0-1.541.2Z"/><path class="j" d="M105.505,159.949a69.245,69.245,0,0,0-8.972,4.526c-.13.942-.114,5.335-.162,6.524a97.915,97.915,0,0,1-2.914,20.982L95.5,210.257a28.422,28.422,0,0,1-2.893,5.087c-.464,2.823-.689,4.859-1.011,7.076a9.706,9.706,0,0,0,2.872-1.4,16.613,16.613,0,0,0,3.133-2.807,27.031,27.031,0,0,0,3.979-6.193,53.292,53.292,0,0,0,3.632-12.779c.515-4.46,1.177-11.1,1.345-14.527a250.973,250.973,0,0,0,.408-25.272C106.507,159.581,106.016,159.752,105.505,159.949Z"/><path class="c" d="M95.385,192.512a95.541,95.541,0,0,0,2.745-17.244c.147-2,.249-4,.272-6a46.5,46.5,0,0,1,.131-4.8l-.991,1.727a47.048,47.048,0,0,1,9.953-4.829l-2.531-1.928a243.858,243.858,0,0,1-.429,25.662c-.237,4.267-.7,8.528-1.17,12.775a48.943,48.943,0,0,1-3.152,12.24c-.072.186-.358.891-.306.772.114-.263-.038.084-.055.12-.152.328-.308.655-.473.977a26.008,26.008,0,0,1-2.3,3.682,13.335,13.335,0,0,1-6.26,4.94l2.531,1.929c-.19-2.02-.253-4.046-.259-6.074-.007-2.574-4.007-2.579-4,0,.006,2.028.069,4.054.259,6.074a2.025,2.025,0,0,0,2.532,1.928c9.106-3.071,13.176-13.68,14.879-22.342a127.109,127.109,0,0,0,1.588-14.407c.27-3.4.422-6.817.565-10.225.251-6.012.344-12.039.045-18.051a2.023,2.023,0,0,0-2.532-1.929,48.361,48.361,0,0,0-9.115,4.2c-1.271.709-2.642,1.252-2.8,2.879-.117,1.21-.091,2.441-.105,3.656a95.867,95.867,0,0,1-2.886,23.2c-.653,2.492,3.2,3.555,3.857,1.063Z"/><path class="c" d="M104.77,158.405c-7.981,3.138-15.594,7.549-21.275,14.084-1.682,1.935,1.136,4.776,2.828,2.829,5.219-6,12.162-10.167,19.511-13.056a2.061,2.061,0,0,0,1.4-2.46,2.015,2.015,0,0,0-2.461-1.4Z"/><path class="e" d="M151.276,204.116c1.818,2.227,4.223,2.845,7.08,2.53,2.022-.222,2.987-1.3,4.227-2.91a8.424,8.424,0,0,0,1.774-3.861,12.043,12.043,0,0,0-.971-5.928c-1.429-3.951-2.119-6.671-4.817-9.892-2.454-2.931-6.3-3.864-10.142-3.922-.527.013-1.611.032-1.611.032-1.868.034-3.35.517-4.15,1.936a3.561,3.561,0,0,0,.579,4.23c-1.761-.02-2.967.8-3.182,2.365s.443,3.312,1.838,3.74a2.851,2.851,0,0,0-1.544,2.809c.12,1.012.882,2.726,2.086,2.944-1.238.354-1.352,2.331-.577,3.588s2.4,1.59,3.867,1.731,4.112.1,5.146.537"/><path class="c" d="M149.861,205.531c2.72,3.175,8.342,4.5,11.911,1.908a12.366,12.366,0,0,0,4.1-5.514,11.174,11.174,0,0,0-.138-7.284c-1.355-4.317-2.888-8.89-6-12.287-3.065-3.347-7.809-4.288-12.163-4.2-2.156.043-4.453.28-5.964,2.017-2.017,2.318-1.617,5.323.223,7.578l1.415-3.415c-2.414.05-4.652,1.3-5.111,3.834a5.4,5.4,0,0,0,3.235,6.2l-.477-3.655c-3.983,1.771-2.89,8.311,1.02,9.408V196.26c-3.481,1.372-3.124,6.184-.262,8.07a9.428,9.428,0,0,0,4.646,1.221,14.654,14.654,0,0,1,4.051.423c2.422.884,3.466-2.98,1.063-3.858-1.731-.631-3.732-.431-5.542-.6a3.642,3.642,0,0,1-2.173-.639c-.228-.238-.22-.462-.326-.749-.2-.53.536-.381-.394-.014,1.744-.687,2.045-3.283,0-3.857-.858-.241-.77-1.784-.064-2.1,1.747-.777.933-3.11-.478-3.656-.419-.162-.492-1.235-.386-1.582.171-.561.637-.582,1.2-.594a2.027,2.027,0,0,0,1.414-3.414,1.54,1.54,0,0,1,.651-2.536,9.637,9.637,0,0,1,3.309-.243c3.073.04,6.308.8,8.411,3.188s3.1,5.4,4.141,8.353c.6,1.7,1.386,3.512,1.276,5.354a7.06,7.06,0,0,1-1.844,4,4.116,4.116,0,0,1-3.759,1.686,5.3,5.3,0,0,1-4.154-2.019c-1.677-1.958-4.5.882-2.829,2.829Z"/><path class="c" d="M143.245,188.331a29.9,29.9,0,0,1,5.523.179l-.531-.072a8.534,8.534,0,0,1,1.551.332,2.015,2.015,0,0,0,2.461-1.4,2.047,2.047,0,0,0-1.4-2.46,15.05,15.05,0,0,0-3.986-.572,33.645,33.645,0,0,0-3.621-.01,2,2,0,0,0,0,4Z"/><path class="c" d="M142.412,194.569a26.015,26.015,0,0,1,3.826-.166c.629.018,1.253.07,1.879.134.239.024-.55-.083-.161-.022l.205.032c.132.022.264.046.4.072.27.055.536.122.8.2a2.017,2.017,0,0,0,2.46-1.4,2.042,2.042,0,0,0-1.4-2.46,15.541,15.541,0,0,0-4.062-.558,26.11,26.11,0,0,0-3.944.162,2.191,2.191,0,0,0-1.415.586,2,2,0,0,0,0,2.828,1.925,1.925,0,0,0,1.415.586Z"/><path class="c" d="M143.131,199.912a36.07,36.07,0,0,1,4.435.17l-.532-.071a8.51,8.51,0,0,1,1.36.283,2.02,2.02,0,0,0,2.461-1.4,2.042,2.042,0,0,0-1.4-2.46,13.826,13.826,0,0,0-3.345-.48c-.993-.049-1.988-.04-2.982-.045a2,2,0,0,0,0,4Z"/><path class="e" d="M97.92,206.2c-1.954,2.115-4.4,2.586-7.235,2.1-2.007-.346-2.907-1.481-4.048-3.168a8.44,8.44,0,0,1-1.538-3.969,12.064,12.064,0,0,1,1.333-5.867c1.67-3.864,2.526-6.541,5.42-9.6,2.634-2.781,6.54-3.478,10.381-3.3.526.045,1.609.131,1.609.131,1.865.148,3.317.721,4.031,2.188a3.569,3.569,0,0,1-.837,4.195c1.762.087,2.917.981,3.037,2.559s-.646,3.284-2.067,3.627a2.852,2.852,0,0,1,1.372,2.9c-.181,1.006-1.047,2.673-2.265,2.817,1.216.429,1.21,2.414.357,3.623s-2.492,1.444-3.971,1.494-4.118-.152-5.178.223"/><path class="c" d="M96.505,204.783c-1.673,1.728-5.195,2.607-7.091.694a8.611,8.611,0,0,1-2.169-3.675,8.253,8.253,0,0,1,.784-5.188c1.165-2.88,2.311-5.968,4.275-8.414a10.329,10.329,0,0,1,8.339-3.829,15.231,15.231,0,0,1,4.065.3c1.436.376,2,1.647.914,2.823a2.026,2.026,0,0,0,1.414,3.414c.445.036.894.123,1.037.559.153.468-.081,1.534-.6,1.7-1.551.494-2.074,2.826-.477,3.656a.829.829,0,0,1,.36,1.017,2.817,2.817,0,0,1-.362.749,1.277,1.277,0,0,1-.282.31q.347-.153-.132-.013a2.02,2.02,0,0,0-.478,3.656c.583.276-.144-.169-.066-.247a1.486,1.486,0,0,1,.034.344,2.056,2.056,0,0,1-.27.705c-.5.569-1.61.564-2.3.588-1.88.066-3.877-.245-5.71.294-2.464.725-1.415,4.587,1.063,3.857a14.889,14.889,0,0,1,4.043-.142,9.3,9.3,0,0,0,4.6-.913c2.6-1.5,3.932-6.369.625-7.94l-.478,3.655c4.086-.881,5.146-7.412,1.372-9.374l-.478,3.655a5.372,5.372,0,0,0,3.5-5.861c-.294-2.7-2.477-4.047-5-4.253l1.414,3.414a5.713,5.713,0,0,0,1.074-6.759c-1.077-1.982-3.192-2.766-5.315-3-4.133-.46-8.746-.183-12.207,2.374-3.786,2.8-5.518,7.173-7.3,11.349-1.008,2.367-1.908,4.794-1.535,7.409a12.373,12.373,0,0,0,2.989,6.136c3.3,3.941,9.823,3.248,13.175-.214,1.791-1.85-1.034-4.682-2.829-2.828Z"/><path class="c" d="M107.036,186.905a33.971,33.971,0,0,0-3.621-.212,15.086,15.086,0,0,0-4.017.361,2,2,0,0,0,1.064,3.857,6.654,6.654,0,0,1,.793-.156l-.532.071a25.8,25.8,0,0,1,6.313.079,2,2,0,0,0,1.414-.586,2,2,0,0,0,0-2.828,2.317,2.317,0,0,0-1.414-.586Z"/><path class="c" d="M108.019,193.264a29.617,29.617,0,0,0-4.406-.472,15.546,15.546,0,0,0-4.151.34,2.019,2.019,0,0,0-1.4,2.46,2.041,2.041,0,0,0,2.46,1.4,2.344,2.344,0,0,1,.726-.142c-.032,0-.516.063-.233.032l.258-.028c.143-.013.286-.025.429-.034.635-.041,1.272-.045,1.908-.025s1.275.062,1.91.126q.231.024.462.051l.283.035c.259.031-.452-.066-.2-.027.3.046.592.091.887.145a2.156,2.156,0,0,0,1.541-.2,2,2,0,0,0-.478-3.656Z"/><path class="c" d="M106.442,198.491a21.887,21.887,0,0,0-6.354.171,2.018,2.018,0,0,0-1.4,2.46,2.043,2.043,0,0,0,2.461,1.4c.234-.056.47-.1.708-.132l-.532.071a27.477,27.477,0,0,1,5.114.033,2.012,2.012,0,0,0,2-2,2.046,2.046,0,0,0-2-2Z"/><path class="c" d="M118.744,141.488a9.844,9.844,0,0,0,11.768,0,2,2,0,0,0-2.829-2.828c-.077.075-.368.307-.037.052s-.035.015-.132.075c-.116.071-.236.136-.357.2-.08.041-.171.073-.248.117.1-.056.469-.179.154-.071a8.379,8.379,0,0,1-1.188.325c-.065.013-.131.024-.2.034-.151.024-.089.017.188-.022a1.393,1.393,0,0,1-.365.037c-.29.025-.581.036-.873.036-.266,0-.533-.009-.8-.029a3.294,3.294,0,0,0-.441-.044c.194-.014.358.054.055,0a7.365,7.365,0,0,1-1.2-.319c-.161-.058-.42-.227.106.053-.067-.036-.139-.063-.208-.1-.135-.066-.268-.138-.4-.217-.1-.061-.188-.134-.286-.194.579.353.28.226.118.067a2,2,0,0,0-2.829,2.828Z"/><path class="c" d="M123.446,128.932a25.055,25.055,0,0,1,.593,2.709l-.072-.532a1.613,1.613,0,0,1,.01.374l.072-.532a.969.969,0,0,1-.041.169l.2-.478a.667.667,0,0,1-.059.108l.313-.405a.617.617,0,0,1-.089.088l.405-.313a1.761,1.761,0,0,1-.215.113l.478-.2a1.566,1.566,0,0,1-.362.1l.532-.071a1.478,1.478,0,0,1-.339,0l.531.072c-.128-.018-.253-.049-.381-.067a1.515,1.515,0,0,0-.8-.035,1.486,1.486,0,0,0-.743.237,2,2,0,0,0-.718,2.736l.313.405a1.992,1.992,0,0,0,.882.515c.346.046.681.132,1.033.148a3.4,3.4,0,0,0,1.591-.389,2.431,2.431,0,0,0,1.307-1.585,3.706,3.706,0,0,0-.013-1.64c-.147-.873-.349-1.738-.573-2.594a2,2,0,0,0-2.461-1.4,2.025,2.025,0,0,0-1.2.92,2.108,2.108,0,0,0-.2,1.541Z"/><path class="c" d="M109.71,121.6c-.452,1.47-.157,4.852,2.628,5.14,3.682-.022,3.877-4.111,2.638-6.034C113.962,119.129,110.978,118.474,109.71,121.6Z"/><path class="c" d="M139.191,121.6c.453,1.47.158,4.852-2.627,5.14-3.682-.022-3.878-4.111-2.639-6.034C134.94,119.129,137.924,118.474,139.191,121.6Z"/><path class="c" d="M149.888,206a26.862,26.862,0,0,0,10.392,11.3,13.043,13.043,0,0,0,13.633.012c4.32-2.662,5.463-7.337,5.821-12.1.4-5.289-1.364-10.889-3.449-15.68a64.459,64.459,0,0,0-9.46-15.326c-1.647-1.981-4.463.862-2.828,2.829a63.51,63.51,0,0,1,7.447,11.583,38.723,38.723,0,0,1,4.228,13.553,19.465,19.465,0,0,1-.281,5.612,8.144,8.144,0,0,1-12.091,6.617,22.738,22.738,0,0,1-9.958-10.414,2.017,2.017,0,0,0-2.737-.718,2.046,2.046,0,0,0-.717,2.737Z"/><path class="c" d="M83.5,172.489A88.188,88.188,0,0,0,73.3,189.348a62.264,62.264,0,0,0-5.528,17.858c-.437,3.178-.831,6.517-.075,9.679a11.249,11.249,0,0,0,4.758,6.706,12.044,12.044,0,0,0,13.588.028c5.227-3.567,9.3-9.14,11.869-14.864a2.062,2.062,0,0,0-.718-2.736,2.015,2.015,0,0,0-2.736.717A35.221,35.221,0,0,1,85.645,218.9a11.592,11.592,0,0,1-4.4,2.673,8.474,8.474,0,0,1-5.72-.817,7.406,7.406,0,0,1-3.967-4.936c-.629-2.614-.217-5.57.166-8.194a57.855,57.855,0,0,1,4.766-15.685,84.052,84.052,0,0,1,9.833-16.625,2.066,2.066,0,0,0,0-2.829,2.013,2.013,0,0,0-2.828,0Z"/></svg>